<svg xmlns="http://www.w3.org/2000/svg" xmlns:xlink="http://www.w3.org/1999/xlink" width="50" zoomAndPan="magnify" viewBox="0 0 37.5 37.499999" height="50" preserveAspectRatio="xMidYMid meet" version="1.0"><defs><clipPath id="id1"><path d="M 0 0 L 34.5 0 L 34.5 36 L 0 36 Z M 0 0 " clip-rule="nonzero"/></clipPath></defs><g clip-path="url(#id1)"><path fill="#ffdc5d" d="M 12.058594 21.710938 C 12.058594 21.710938 11.351562 18.117188 12.351562 10.980469 C 13.730469 11.429688 15.125 11.84375 15.574219 11.84375 C 16.558594 11.84375 19.515625 10.855469 19.515625 9.867188 C 19.515625 8.882812 18.53125 7.894531 18.53125 7.894531 L 20.5 6.90625 C 21.484375 5.921875 20.5 0 16.558594 0 C 9.664062 0 7.132812 6.90625 7.132812 6.90625 L 7.140625 6.917969 L 7.132812 6.917969 C 7.132812 6.917969 1.222656 17.761719 1.222656 26.65625 C 1.285156 26.65625 0.234375 31.589844 1.222656 32.578125 C 2.207031 33.5625 6.148438 33.5625 6.148438 33.5625 C 16 37.5 34.292969 34.539062 34.292969 25.65625 C 34.292969 12.828125 15.011719 15.789062 12.058594 21.710938 Z M 12.058594 21.710938 " fill-opacity="1" fill-rule="nonzero"/></g><path fill="#664500" d="M 19.015625 31.828125 C 15.886719 31.828125 13.308594 30.5625 13.164062 30.488281 C 12.679688 30.246094 12.480469 29.652344 12.722656 29.167969 C 12.964844 28.679688 13.554688 28.480469 14.042969 28.722656 C 14.085938 28.742188 18.222656 30.757812 21.882812 29.355469 C 23.90625 28.578125 25.453125 26.878906 26.484375 24.304688 C 26.683594 23.796875 27.261719 23.554688 27.765625 23.753906 C 28.269531 23.957031 28.515625 24.53125 28.3125 25.039062 C 27.070312 28.152344 25.136719 30.226562 22.574219 31.203125 C 21.375 31.660156 20.160156 31.828125 19.015625 31.828125 Z M 19.015625 31.828125 " fill-opacity="1" fill-rule="nonzero"/></svg>