<svg xmlns="http://www.w3.org/2000/svg" xmlns:xlink="http://www.w3.org/1999/xlink" width="50" zoomAndPan="magnify" viewBox="0 0 37.5 37.499999" height="50" preserveAspectRatio="xMidYMid meet" version="1.0"><defs><clipPath id="id1"><path d="M 0 0 L 37.007812 0 L 37.007812 37.007812 L 0 37.007812 Z M 0 0 " clip-rule="nonzero"/></clipPath></defs><g clip-path="url(#id1)"><path fill="#ffcc4d" d="M 37.5 18.75 C 37.5 29.105469 29.105469 37.5 18.75 37.5 C 8.394531 37.5 0 29.105469 0 18.75 C 0 8.394531 8.394531 0 18.75 0 C 29.105469 0 37.5 8.394531 37.5 18.75 " fill-opacity="1" fill-rule="nonzero"/></g><path fill="#664500" d="M 21.875 26.5625 C 21.875 27.046875 21.796875 27.511719 21.636719 27.957031 C 21.480469 28.40625 21.253906 28.796875 20.960938 29.140625 C 20.667969 29.480469 20.328125 29.746094 19.945312 29.929688 C 19.5625 30.117188 19.164062 30.207031 18.75 30.207031 C 18.335938 30.207031 17.9375 30.117188 17.554688 29.929688 C 17.171875 29.746094 16.832031 29.480469 16.539062 29.140625 C 16.246094 28.796875 16.019531 28.40625 15.863281 27.957031 C 15.703125 27.511719 15.625 27.046875 15.625 26.5625 C 15.625 26.078125 15.703125 25.613281 15.863281 25.167969 C 16.019531 24.71875 16.246094 24.328125 16.539062 23.984375 C 16.832031 23.644531 17.171875 23.378906 17.554688 23.195312 C 17.9375 23.007812 18.335938 22.917969 18.75 22.917969 C 19.164062 22.917969 19.5625 23.007812 19.945312 23.195312 C 20.328125 23.378906 20.667969 23.644531 20.960938 23.984375 C 21.253906 24.328125 21.480469 24.71875 21.636719 25.167969 C 21.796875 25.613281 21.875 26.078125 21.875 26.5625 Z M 21.875 26.5625 " fill-opacity="1" fill-rule="nonzero"/><path fill="#664500" d="M 32.292969 11.457031 C 31.976562 11.457031 31.664062 11.316406 31.457031 11.042969 C 28.707031 7.375 25.144531 7.292969 24.992188 7.292969 C 24.421875 7.285156 23.957031 6.816406 23.960938 6.246094 C 23.964844 5.671875 24.425781 5.207031 25 5.207031 C 25.191406 5.207031 29.726562 5.261719 33.125 9.792969 C 33.472656 10.253906 33.378906 10.90625 32.917969 11.25 C 32.730469 11.390625 32.511719 11.457031 32.292969 11.457031 Z M 5.207031 11.457031 C 4.992188 11.457031 4.769531 11.390625 4.582031 11.25 C 4.121094 10.90625 4.03125 10.253906 4.375 9.792969 C 7.773438 5.261719 12.308594 5.207031 12.5 5.207031 C 13.074219 5.207031 13.542969 5.675781 13.542969 6.25 C 13.542969 6.824219 13.078125 7.289062 12.503906 7.292969 C 12.34375 7.292969 8.789062 7.382812 6.042969 11.042969 C 5.835938 11.316406 5.523438 11.457031 5.207031 11.457031 Z M 5.207031 11.457031 " fill-opacity="1" fill-rule="nonzero"/><path fill="#664500" d="M 15.105469 15.105469 C 15.105469 15.585938 15.039062 16.050781 14.90625 16.5 C 14.773438 16.945312 14.585938 17.339844 14.339844 17.683594 C 14.097656 18.023438 13.816406 18.289062 13.496094 18.472656 C 13.175781 18.65625 12.84375 18.75 12.5 18.75 C 12.15625 18.75 11.824219 18.65625 11.503906 18.472656 C 11.183594 18.289062 10.902344 18.023438 10.660156 17.683594 C 10.414062 17.339844 10.226562 16.945312 10.09375 16.5 C 9.960938 16.050781 9.894531 15.585938 9.894531 15.105469 C 9.894531 14.621094 9.960938 14.15625 10.09375 13.707031 C 10.226562 13.261719 10.414062 12.867188 10.660156 12.527344 C 10.902344 12.183594 11.183594 11.921875 11.503906 11.734375 C 11.824219 11.550781 12.15625 11.457031 12.5 11.457031 C 12.84375 11.457031 13.175781 11.550781 13.496094 11.734375 C 13.816406 11.921875 14.097656 12.183594 14.339844 12.527344 C 14.585938 12.867188 14.773438 13.261719 14.90625 13.707031 C 15.039062 14.15625 15.105469 14.621094 15.105469 15.105469 Z M 15.105469 15.105469 " fill-opacity="1" fill-rule="nonzero"/><path fill="#664500" d="M 27.605469 15.105469 C 27.605469 15.585938 27.539062 16.050781 27.40625 16.5 C 27.273438 16.945312 27.085938 17.339844 26.839844 17.683594 C 26.597656 18.023438 26.316406 18.289062 25.996094 18.472656 C 25.675781 18.65625 25.34375 18.75 25 18.75 C 24.65625 18.75 24.324219 18.65625 24.003906 18.472656 C 23.683594 18.289062 23.402344 18.023438 23.160156 17.683594 C 22.914062 17.339844 22.726562 16.945312 22.59375 16.5 C 22.460938 16.050781 22.394531 15.585938 22.394531 15.105469 C 22.394531 14.621094 22.460938 14.15625 22.59375 13.707031 C 22.726562 13.261719 22.914062 12.867188 23.160156 12.527344 C 23.402344 12.183594 23.683594 11.921875 24.003906 11.734375 C 24.324219 11.550781 24.65625 11.457031 25 11.457031 C 25.34375 11.457031 25.675781 11.550781 25.996094 11.734375 C 26.316406 11.921875 26.597656 12.183594 26.839844 12.527344 C 27.085938 12.867188 27.273438 13.261719 27.40625 13.707031 C 27.539062 14.15625 27.605469 14.621094 27.605469 15.105469 Z M 27.605469 15.105469 " fill-opacity="1" fill-rule="nonzero"/></svg>