<svg xmlns="http://www.w3.org/2000/svg" xmlns:xlink="http://www.w3.org/1999/xlink" width="50" zoomAndPan="magnify" viewBox="0 0 37.5 37.499999" height="50" preserveAspectRatio="xMidYMid meet" version="1.0"><defs><clipPath id="id1"><path d="M 0 0 L 37.007812 0 L 37.007812 37.007812 L 0 37.007812 Z M 0 0 " clip-rule="nonzero"/></clipPath></defs><g clip-path="url(#id1)"><path fill="#ffdc5d" d="M 37.5 18.75 C 37.5 29.105469 29.105469 37.5 18.75 37.5 C 8.394531 37.5 0 29.105469 0 18.75 C 0 8.394531 8.394531 0 18.75 0 C 29.105469 0 37.5 8.394531 37.5 18.75 " fill-opacity="1" fill-rule="nonzero"/></g><path fill="#664500" d="M 29.492188 16.261719 C 29.308594 16.113281 29.046875 16.109375 28.855469 16.246094 C 28.84375 16.257812 27.542969 17.1875 25 17.1875 C 22.457031 17.1875 21.15625 16.257812 21.144531 16.25 C 20.957031 16.105469 20.691406 16.113281 20.507812 16.257812 C 20.324219 16.40625 20.261719 16.660156 20.355469 16.878906 C 20.417969 17.019531 21.917969 20.3125 25 20.3125 C 28.082031 20.3125 29.582031 17.019531 29.644531 16.878906 C 29.738281 16.664062 29.675781 16.410156 29.492188 16.261719 Z M 16.355469 16.246094 C 16.34375 16.257812 15.042969 17.1875 12.5 17.1875 C 9.957031 17.1875 8.65625 16.257812 8.644531 16.25 C 8.457031 16.105469 8.195312 16.113281 8.007812 16.257812 C 7.824219 16.40625 7.761719 16.660156 7.855469 16.878906 C 7.917969 17.019531 9.417969 20.3125 12.5 20.3125 C 15.582031 20.3125 17.082031 17.019531 17.144531 16.878906 C 17.238281 16.664062 17.175781 16.410156 16.992188 16.261719 C 16.808594 16.113281 16.546875 16.109375 16.355469 16.246094 Z M 30.210938 13.542969 C 29.890625 13.542969 29.582031 13.398438 29.375 13.125 C 26.675781 9.523438 22.125 10.386719 22.078125 10.394531 C 21.507812 10.507812 20.964844 10.144531 20.851562 9.578125 C 20.742188 9.015625 21.105469 8.464844 21.667969 8.351562 C 21.910156 8.304688 27.5625 7.238281 31.039062 11.875 C 31.386719 12.335938 31.292969 12.988281 30.832031 13.332031 C 30.644531 13.472656 30.425781 13.542969 30.210938 13.542969 Z M 7.289062 13.542969 C 7.074219 13.542969 6.855469 13.472656 6.667969 13.332031 C 6.207031 12.988281 6.113281 12.335938 6.457031 11.875 C 9.9375 7.234375 15.589844 8.304688 15.828125 8.355469 C 16.394531 8.464844 16.757812 9.015625 16.644531 9.582031 C 16.535156 10.144531 15.984375 10.507812 15.421875 10.398438 C 15.230469 10.363281 10.800781 9.554688 8.125 13.125 C 7.921875 13.398438 7.605469 13.542969 7.289062 13.542969 Z M 24.222656 24.558594 C 24.027344 24.445312 23.773438 24.46875 23.601562 24.621094 C 23.589844 24.628906 22.546875 25.519531 18.75 25.519531 C 14.957031 25.519531 13.910156 24.632812 13.910156 24.632812 C 13.746094 24.464844 13.488281 24.433594 13.285156 24.546875 C 13.082031 24.660156 12.980469 24.898438 13.039062 25.125 C 13.046875 25.171875 14.230469 29.6875 18.75 29.6875 C 23.269531 29.6875 24.453125 25.171875 24.464844 25.125 C 24.519531 24.902344 24.417969 24.675781 24.222656 24.558594 Z M 24.222656 24.558594 " fill-opacity="1" fill-rule="nonzero"/></svg>