<svg xmlns="http://www.w3.org/2000/svg" xmlns:xlink="http://www.w3.org/1999/xlink" width="50" zoomAndPan="magnify" viewBox="0 0 37.5 37.499999" height="50" preserveAspectRatio="xMidYMid meet" version="1.0"><defs><clipPath id="id1"><path d="M 0 0 L 37.007812 0 L 37.007812 37.007812 L 0 37.007812 Z M 0 0 " clip-rule="nonzero"/></clipPath></defs><g clip-path="url(#id1)"><path fill="#ffcc4d" d="M 37.5 18.75 C 37.5 29.105469 29.105469 37.5 18.75 37.5 C 8.394531 37.5 0 29.105469 0 18.75 C 0 8.394531 8.394531 0 18.75 0 C 29.105469 0 37.5 8.394531 37.5 18.75 " fill-opacity="1" fill-rule="nonzero"/></g><path fill="#664500" d="M 18.75 22.394531 C 9.027344 22.394531 7.828125 31.097656 7.816406 31.183594 C 7.792969 31.363281 7.863281 31.539062 8.003906 31.652344 C 8.097656 31.730469 8.214844 31.769531 8.332031 31.769531 C 8.386719 31.769531 8.445312 31.761719 8.496094 31.746094 C 8.558594 31.722656 14.714844 29.6875 18.75 29.6875 C 24.578125 29.6875 28.902344 31.699219 28.945312 31.722656 C 29.113281 31.800781 29.316406 31.785156 29.472656 31.671875 C 29.625 31.558594 29.707031 31.375 29.683594 31.183594 C 29.671875 31.097656 28.472656 22.394531 18.75 22.394531 Z M 30.207031 10.417969 C 24.421875 10.417969 22.082031 5.867188 21.984375 5.675781 C 21.726562 5.160156 21.933594 4.535156 22.449219 4.277344 C 22.964844 4.019531 23.585938 4.226562 23.847656 4.738281 C 23.925781 4.890625 25.742188 8.332031 30.207031 8.332031 C 30.785156 8.332031 31.25 8.800781 31.25 9.375 C 31.25 9.949219 30.785156 10.417969 30.207031 10.417969 Z M 7.292969 10.417969 C 6.714844 10.417969 6.25 9.949219 6.25 9.375 C 6.25 8.800781 6.714844 8.332031 7.292969 8.332031 C 12.585938 8.332031 13.539062 5.082031 13.574219 4.945312 C 13.726562 4.394531 14.296875 4.0625 14.847656 4.207031 C 15.398438 4.351562 15.730469 4.90625 15.59375 5.460938 C 15.542969 5.664062 14.273438 10.417969 7.292969 10.417969 Z M 7.292969 10.417969 " fill-opacity="1" fill-rule="nonzero"/><path fill="#ccd6dd" d="M 18.75 23.957031 C 22.917969 23.957031 25 26.042969 25 26.042969 L 12.5 26.042969 C 12.5 26.042969 14.582031 23.957031 18.75 23.957031 Z M 18.75 23.957031 " fill-opacity="1" fill-rule="nonzero"/><path fill="#664500" d="M 6.25 19.792969 C 5.933594 19.792969 5.621094 19.648438 5.417969 19.375 C 5.070312 18.914062 5.164062 18.261719 5.625 17.917969 C 5.773438 17.804688 8.699219 15.644531 12.765625 14.863281 C 10.1875 13.570312 7.328125 13.542969 7.289062 13.542969 C 6.714844 13.539062 6.25 13.074219 6.25 12.496094 C 6.25 11.925781 6.714844 11.457031 7.292969 11.457031 C 7.523438 11.457031 12.972656 11.496094 16.363281 14.886719 C 16.660156 15.1875 16.75 15.632812 16.585938 16.023438 C 16.425781 16.414062 16.046875 16.667969 15.625 16.667969 C 10.820312 16.667969 6.914062 19.554688 6.875 19.582031 C 6.6875 19.722656 6.46875 19.792969 6.25 19.792969 Z M 31.25 19.789062 C 31.03125 19.789062 30.8125 19.722656 30.625 19.585938 C 30.585938 19.554688 26.65625 16.667969 21.875 16.667969 C 21.453125 16.667969 21.074219 16.414062 20.914062 16.023438 C 20.75 15.632812 20.839844 15.1875 21.136719 14.886719 C 24.53125 11.496094 29.976562 11.457031 30.207031 11.457031 C 30.785156 11.457031 31.246094 11.925781 31.25 12.496094 C 31.25 13.074219 30.785156 13.539062 30.210938 13.542969 C 30.171875 13.542969 27.3125 13.570312 24.734375 14.863281 C 28.800781 15.644531 31.726562 17.804688 31.875 17.917969 C 32.332031 18.261719 32.425781 18.914062 32.082031 19.375 C 31.878906 19.644531 31.566406 19.789062 31.25 19.789062 Z M 31.25 19.789062 " fill-opacity="1" fill-rule="nonzero"/></svg>