<svg xmlns="http://www.w3.org/2000/svg" xmlns:xlink="http://www.w3.org/1999/xlink" width="50" zoomAndPan="magnify" viewBox="0 0 37.5 37.499999" height="50" preserveAspectRatio="xMidYMid meet" version="1.0"><defs><clipPath id="id1"><path d="M 0 0 L 35.25 0 L 35.25 36 L 0 36 Z M 0 0 " clip-rule="nonzero"/></clipPath><clipPath id="id2"><path d="M 1 20 L 34 20 L 34 37.007812 L 1 37.007812 Z M 1 20 " clip-rule="nonzero"/></clipPath></defs><g clip-path="url(#id1)"><path fill="#ffcb4c" d="M 35.234375 17.707031 C 35.234375 27.488281 27.351562 35.417969 17.625 35.417969 C 7.902344 35.417969 0.015625 27.488281 0.015625 17.707031 C 0.015625 7.929688 7.902344 0 17.625 0 C 27.351562 0 35.234375 7.929688 35.234375 17.707031 " fill-opacity="1" fill-rule="nonzero"/></g><path fill="#65471b" d="M 17.625 28.265625 C 21.078125 28.265625 23.371094 28.671875 26.207031 29.226562 C 26.851562 29.351562 28.113281 29.226562 28.113281 27.308594 C 28.113281 23.472656 23.730469 18.679688 17.625 18.679688 C 11.519531 18.679688 7.136719 23.472656 7.136719 27.308594 C 7.136719 29.226562 8.398438 29.351562 9.042969 29.226562 C 11.878906 28.671875 14.171875 28.265625 17.625 28.265625 Z M 29.949219 17.90625 C 29.839844 17.820312 28.0625 16.503906 25.40625 15.597656 C 25.433594 15.488281 25.453125 15.371094 25.453125 15.25 C 25.453125 14.886719 25.316406 14.558594 25.101562 14.300781 C 26.863281 13.789062 28.363281 13.773438 28.390625 13.773438 C 28.929688 13.773438 29.367188 13.332031 29.363281 12.789062 C 29.363281 12.246094 28.929688 11.804688 28.386719 11.804688 C 28.171875 11.804688 23.054688 11.84375 19.871094 15.046875 C 19.589844 15.328125 19.507812 15.75 19.65625 16.117188 C 19.808594 16.484375 20.164062 16.726562 20.558594 16.726562 C 25.050781 16.726562 28.742188 19.453125 28.78125 19.480469 C 28.957031 19.613281 29.160156 19.675781 29.363281 19.675781 C 29.664062 19.675781 29.957031 19.539062 30.148438 19.28125 C 30.46875 18.847656 30.382812 18.230469 29.949219 17.90625 Z M 15.382812 15.042969 C 12.199219 11.839844 7.082031 11.804688 6.863281 11.804688 C 6.324219 11.804688 5.886719 12.246094 5.886719 12.789062 C 5.886719 13.332031 6.320312 13.769531 6.863281 13.773438 C 6.886719 13.773438 8.386719 13.789062 10.148438 14.300781 C 9.933594 14.558594 9.796875 14.886719 9.796875 15.246094 C 9.796875 15.367188 9.816406 15.484375 9.84375 15.597656 C 7.1875 16.5 5.410156 17.820312 5.296875 17.902344 C 4.867188 18.230469 4.777344 18.847656 5.101562 19.28125 C 5.292969 19.539062 5.585938 19.675781 5.886719 19.675781 C 6.089844 19.675781 6.296875 19.609375 6.472656 19.476562 C 6.507812 19.449219 10.175781 16.722656 14.6875 16.722656 C 15.085938 16.722656 15.441406 16.484375 15.589844 16.117188 C 15.746094 15.75 15.664062 15.328125 15.382812 15.042969 Z M 15.382812 15.042969 " fill-opacity="1" fill-rule="nonzero"/><g clip-path="url(#id2)"><path fill="#77af57" d="M 25.613281 33.632812 L 25.613281 26.234375 C 25.613281 23.535156 21.585938 20.835938 17.554688 20.835938 C 13.527344 20.835938 9.5 23.535156 9.5 26.234375 L 9.5 33.632812 C 4.9375 33.996094 1.878906 34.660156 1.878906 35.417969 C 1.878906 36.566406 8.898438 37.5 17.554688 37.5 C 26.214844 37.5 33.234375 36.566406 33.234375 35.417969 C 33.234375 34.660156 30.175781 33.996094 25.613281 33.632812 Z M 25.613281 33.632812 " fill-opacity="1" fill-rule="nonzero"/></g><path fill="#5d8f3f" d="M 16.703125 24.195312 C 16.703125 24.367188 16.671875 24.53125 16.605469 24.6875 C 16.539062 24.847656 16.449219 24.984375 16.328125 25.105469 C 16.207031 25.226562 16.070312 25.320312 15.914062 25.382812 C 15.757812 25.449219 15.59375 25.480469 15.425781 25.480469 C 15.253906 25.480469 15.089844 25.449219 14.933594 25.382812 C 14.777344 25.320312 14.640625 25.226562 14.519531 25.105469 C 14.398438 24.984375 14.308594 24.847656 14.242188 24.6875 C 14.175781 24.53125 14.144531 24.367188 14.144531 24.195312 C 14.144531 24.023438 14.175781 23.859375 14.242188 23.703125 C 14.308594 23.546875 14.398438 23.40625 14.519531 23.285156 C 14.640625 23.164062 14.777344 23.074219 14.933594 23.007812 C 15.089844 22.941406 15.253906 22.910156 15.425781 22.910156 C 15.59375 22.910156 15.757812 22.941406 15.914062 23.007812 C 16.070312 23.074219 16.207031 23.164062 16.328125 23.285156 C 16.449219 23.40625 16.539062 23.546875 16.605469 23.703125 C 16.671875 23.859375 16.703125 24.023438 16.703125 24.195312 Z M 16.703125 24.195312 " fill-opacity="1" fill-rule="nonzero"/><path fill="#5d8f3f" d="M 21.699219 26.707031 C 21.699219 26.878906 21.667969 27.042969 21.601562 27.199219 C 21.535156 27.359375 21.445312 27.496094 21.324219 27.617188 C 21.203125 27.738281 21.066406 27.832031 20.910156 27.898438 C 20.753906 27.960938 20.589844 27.996094 20.417969 27.996094 C 20.25 27.996094 20.085938 27.960938 19.929688 27.898438 C 19.773438 27.832031 19.636719 27.738281 19.515625 27.617188 C 19.394531 27.496094 19.300781 27.359375 19.238281 27.199219 C 19.171875 27.042969 19.140625 26.878906 19.140625 26.707031 C 19.140625 26.539062 19.171875 26.375 19.238281 26.214844 C 19.300781 26.058594 19.394531 25.917969 19.515625 25.796875 C 19.636719 25.679688 19.773438 25.585938 19.929688 25.519531 C 20.085938 25.453125 20.25 25.421875 20.417969 25.421875 C 20.589844 25.421875 20.753906 25.453125 20.910156 25.519531 C 21.066406 25.585938 21.203125 25.679688 21.324219 25.796875 C 21.445312 25.917969 21.535156 26.058594 21.601562 26.214844 C 21.667969 26.375 21.699219 26.539062 21.699219 26.707031 Z M 21.699219 26.707031 " fill-opacity="1" fill-rule="nonzero"/><path fill="#5d8f3f" d="M 21.179688 30.515625 C 21.347656 30.542969 21.503906 30.601562 21.644531 30.691406 C 21.789062 30.78125 21.914062 30.894531 22.011719 31.035156 C 22.109375 31.171875 22.179688 31.324219 22.21875 31.488281 C 22.257812 31.65625 22.261719 31.824219 22.238281 31.992188 C 22.210938 32.160156 22.152344 32.316406 22.0625 32.460938 C 21.972656 32.605469 21.859375 32.730469 21.722656 32.828125 C 21.585938 32.929688 21.433594 33 21.269531 33.039062 C 21.101562 33.078125 20.9375 33.082031 20.769531 33.054688 C 20.601562 33.027344 20.445312 32.96875 20.300781 32.878906 C 20.15625 32.789062 20.035156 32.675781 19.9375 32.539062 C 19.835938 32.398438 19.769531 32.246094 19.730469 32.082031 C 19.691406 31.914062 19.683594 31.746094 19.710938 31.578125 C 19.738281 31.410156 19.796875 31.253906 19.886719 31.109375 C 19.976562 30.964844 20.089844 30.839844 20.226562 30.742188 C 20.363281 30.640625 20.515625 30.574219 20.679688 30.535156 C 20.84375 30.496094 21.011719 30.488281 21.179688 30.515625 Z M 21.179688 30.515625 " fill-opacity="1" fill-rule="nonzero"/><path fill="#5d8f3f" d="M 14.921875 32.089844 C 15.160156 32.128906 15.382812 32.210938 15.589844 32.339844 C 15.796875 32.46875 15.96875 32.632812 16.113281 32.828125 C 16.253906 33.027344 16.351562 33.246094 16.40625 33.480469 C 16.464844 33.71875 16.472656 33.957031 16.433594 34.199219 C 16.394531 34.4375 16.3125 34.664062 16.183594 34.871094 C 16.054688 35.078125 15.894531 35.253906 15.699219 35.394531 C 15.5 35.539062 15.285156 35.636719 15.046875 35.695312 C 14.8125 35.75 14.574219 35.757812 14.335938 35.71875 C 14.097656 35.679688 13.875 35.597656 13.667969 35.46875 C 13.460938 35.339844 13.285156 35.175781 13.144531 34.980469 C 13.003906 34.78125 12.90625 34.5625 12.847656 34.328125 C 12.792969 34.089844 12.785156 33.851562 12.824219 33.609375 C 12.863281 33.367188 12.945312 33.144531 13.074219 32.9375 C 13.199219 32.730469 13.363281 32.554688 13.558594 32.414062 C 13.757812 32.269531 13.972656 32.171875 14.207031 32.113281 C 14.445312 32.058594 14.683594 32.050781 14.921875 32.089844 Z M 14.921875 32.089844 " fill-opacity="1" fill-rule="nonzero"/></svg>