<svg xmlns="http://www.w3.org/2000/svg" xmlns:xlink="http://www.w3.org/1999/xlink" width="50" zoomAndPan="magnify" viewBox="0 0 37.5 37.499999" height="50" preserveAspectRatio="xMidYMid meet" version="1.0"><defs><clipPath id="id1"><path d="M 0 0 L 37.007812 0 L 37.007812 37.007812 L 0 37.007812 Z M 0 0 " clip-rule="nonzero"/></clipPath></defs><g clip-path="url(#id1)"><path fill="#ffdc5d" d="M 37.5 18.75 C 37.5 29.105469 29.105469 37.5 18.75 37.5 C 8.394531 37.5 0 29.105469 0 18.75 C 0 8.394531 8.394531 0 18.75 0 C 29.105469 0 37.5 8.394531 37.5 18.75 " fill-opacity="1" fill-rule="nonzero"/></g><path fill="#664500" d="M 14.582031 13.019531 C 14.582031 13.398438 14.566406 13.769531 14.535156 14.136719 C 14.5 14.507812 14.449219 14.867188 14.386719 15.214844 C 14.320312 15.5625 14.238281 15.890625 14.144531 16.203125 C 14.050781 16.515625 13.941406 16.804688 13.820312 17.070312 C 13.699219 17.339844 13.566406 17.574219 13.425781 17.785156 C 13.285156 17.992188 13.132812 18.171875 12.976562 18.3125 C 12.816406 18.457031 12.65625 18.566406 12.488281 18.640625 C 12.320312 18.714844 12.148438 18.75 11.980469 18.75 C 11.808594 18.75 11.640625 18.714844 11.472656 18.640625 C 11.304688 18.566406 11.140625 18.457031 10.984375 18.3125 C 10.824219 18.171875 10.675781 17.992188 10.53125 17.785156 C 10.390625 17.574219 10.257812 17.339844 10.136719 17.070312 C 10.015625 16.804688 9.910156 16.515625 9.8125 16.203125 C 9.71875 15.890625 9.636719 15.5625 9.574219 15.214844 C 9.507812 14.867188 9.457031 14.507812 9.425781 14.136719 C 9.390625 13.769531 9.375 13.398438 9.375 13.019531 C 9.375 12.644531 9.390625 12.273438 9.425781 11.902344 C 9.457031 11.535156 9.507812 11.175781 9.574219 10.828125 C 9.636719 10.480469 9.71875 10.152344 9.8125 9.835938 C 9.910156 9.523438 10.015625 9.234375 10.136719 8.96875 C 10.257812 8.703125 10.390625 8.464844 10.53125 8.257812 C 10.675781 8.046875 10.824219 7.871094 10.984375 7.726562 C 11.140625 7.582031 11.304688 7.476562 11.472656 7.402344 C 11.640625 7.328125 11.808594 7.292969 11.980469 7.292969 C 12.148438 7.292969 12.320312 7.328125 12.488281 7.402344 C 12.65625 7.476562 12.816406 7.582031 12.976562 7.726562 C 13.132812 7.871094 13.285156 8.046875 13.425781 8.257812 C 13.566406 8.464844 13.699219 8.703125 13.820312 8.96875 C 13.941406 9.234375 14.050781 9.523438 14.144531 9.835938 C 14.238281 10.152344 14.320312 10.480469 14.386719 10.828125 C 14.449219 11.175781 14.5 11.535156 14.535156 11.902344 C 14.566406 12.273438 14.582031 12.644531 14.582031 13.019531 Z M 14.582031 13.019531 " fill-opacity="1" fill-rule="nonzero"/><path fill="#664500" d="M 28.125 13.019531 C 28.125 13.398438 28.109375 13.769531 28.074219 14.136719 C 28.042969 14.507812 27.992188 14.867188 27.925781 15.214844 C 27.859375 15.5625 27.78125 15.890625 27.6875 16.203125 C 27.589844 16.515625 27.484375 16.804688 27.363281 17.070312 C 27.242188 17.339844 27.109375 17.574219 26.96875 17.785156 C 26.824219 17.992188 26.675781 18.171875 26.515625 18.3125 C 26.359375 18.457031 26.195312 18.566406 26.027344 18.640625 C 25.859375 18.714844 25.691406 18.75 25.519531 18.75 C 25.351562 18.75 25.179688 18.714844 25.011719 18.640625 C 24.84375 18.566406 24.683594 18.457031 24.523438 18.3125 C 24.367188 18.171875 24.214844 17.992188 24.074219 17.785156 C 23.933594 17.574219 23.800781 17.339844 23.679688 17.070312 C 23.558594 16.804688 23.449219 16.515625 23.355469 16.203125 C 23.261719 15.890625 23.179688 15.5625 23.113281 15.214844 C 23.050781 14.867188 23 14.507812 22.964844 14.136719 C 22.933594 13.769531 22.917969 13.398438 22.917969 13.019531 C 22.917969 12.644531 22.933594 12.273438 22.964844 11.902344 C 23 11.535156 23.050781 11.175781 23.113281 10.828125 C 23.179688 10.480469 23.261719 10.152344 23.355469 9.835938 C 23.449219 9.523438 23.558594 9.234375 23.679688 8.96875 C 23.800781 8.703125 23.933594 8.464844 24.074219 8.257812 C 24.214844 8.046875 24.367188 7.871094 24.523438 7.726562 C 24.683594 7.582031 24.84375 7.476562 25.011719 7.402344 C 25.179688 7.328125 25.351562 7.292969 25.519531 7.292969 C 25.691406 7.292969 25.859375 7.328125 26.027344 7.402344 C 26.195312 7.476562 26.359375 7.582031 26.515625 7.726562 C 26.675781 7.871094 26.824219 8.046875 26.96875 8.257812 C 27.109375 8.464844 27.242188 8.703125 27.363281 8.96875 C 27.484375 9.234375 27.589844 9.523438 27.6875 9.835938 C 27.78125 10.152344 27.859375 10.480469 27.925781 10.828125 C 27.992188 11.175781 28.042969 11.535156 28.074219 11.902344 C 28.109375 12.273438 28.125 12.644531 28.125 13.019531 Z M 28.125 13.019531 " fill-opacity="1" fill-rule="nonzero"/><path fill="#664500" d="M 18.75 22.917969 C 14.976562 22.917969 12.472656 22.476562 9.375 21.875 C 8.667969 21.738281 7.292969 21.875 7.292969 23.957031 C 7.292969 28.125 12.078125 33.332031 18.75 33.332031 C 25.421875 33.332031 30.207031 28.125 30.207031 23.957031 C 30.207031 21.875 28.832031 21.738281 28.125 21.875 C 25.027344 22.476562 22.523438 22.917969 18.75 22.917969 Z M 18.75 22.917969 " fill-opacity="1" fill-rule="nonzero"/><path fill="#ffffff" d="M 9.375 23.957031 C 9.375 23.957031 12.5 25 18.75 25 C 25 25 28.125 23.957031 28.125 23.957031 C 28.125 23.957031 26.042969 28.125 18.75 28.125 C 11.457031 28.125 9.375 23.957031 9.375 23.957031 Z M 9.375 23.957031 " fill-opacity="1" fill-rule="nonzero"/></svg>