<svg xmlns="http://www.w3.org/2000/svg" xmlns:xlink="http://www.w3.org/1999/xlink" width="50" zoomAndPan="magnify" viewBox="0 0 37.5 37.499999" height="50" preserveAspectRatio="xMidYMid meet" version="1.0"><defs><clipPath id="id1"><path d="M 0 0 L 37.007812 0 L 37.007812 37.007812 L 0 37.007812 Z M 0 0 " clip-rule="nonzero"/></clipPath><clipPath id="id2"><path d="M 1 0 L 37.007812 0 L 37.007812 15 L 1 15 Z M 1 0 " clip-rule="nonzero"/></clipPath></defs><g clip-path="url(#id1)"><path fill="#ffcc4d" d="M 37.109375 14.933594 L 24.097656 0.785156 C 22.402344 0.28125 20.609375 0 18.75 0 C 16.28125 0 13.933594 0.488281 11.773438 1.355469 L 1.402344 11.640625 C 0.503906 13.835938 0 16.230469 0 18.75 C 0 29.105469 8.394531 37.5 18.75 37.5 C 29.105469 37.5 37.5 29.105469 37.5 18.75 C 37.5 17.441406 37.363281 16.167969 37.109375 14.933594 Z M 37.109375 14.933594 " fill-opacity="1" fill-rule="nonzero"/></g><path fill="#664500" d="M 13.542969 29.167969 C 13.542969 29.167969 14.582031 25 18.75 25 C 22.917969 25 23.957031 29.167969 23.957031 29.167969 C 23.957031 29.167969 22.917969 28.125 18.75 28.125 C 14.582031 28.125 13.542969 29.167969 13.542969 29.167969 Z M 30.164062 18.539062 C 30.101562 18.398438 28.601562 15.105469 25.519531 15.105469 C 22.441406 15.105469 20.941406 18.398438 20.878906 18.539062 C 20.78125 18.753906 20.84375 19.007812 21.027344 19.15625 C 21.210938 19.304688 21.472656 19.308594 21.664062 19.167969 C 21.675781 19.160156 22.980469 18.230469 25.519531 18.230469 C 28.046875 18.230469 29.347656 19.148438 29.378906 19.167969 C 29.46875 19.238281 29.578125 19.269531 29.6875 19.269531 C 29.800781 19.269531 29.917969 19.230469 30.011719 19.15625 C 30.195312 19.007812 30.261719 18.753906 30.164062 18.539062 Z M 16.621094 18.539062 C 16.558594 18.398438 15.058594 15.105469 11.980469 15.105469 C 8.898438 15.105469 7.398438 18.398438 7.335938 18.539062 C 7.242188 18.753906 7.304688 19.007812 7.488281 19.15625 C 7.667969 19.304688 7.929688 19.308594 8.121094 19.167969 C 8.136719 19.160156 9.4375 18.230469 11.980469 18.230469 C 14.507812 18.230469 15.804688 19.148438 15.835938 19.167969 C 15.925781 19.238281 16.039062 19.269531 16.144531 19.269531 C 16.261719 19.269531 16.375 19.230469 16.46875 19.15625 C 16.65625 19.007812 16.71875 18.753906 16.621094 18.539062 Z M 16.621094 18.539062 " fill-opacity="1" fill-rule="nonzero"/><g clip-path="url(#id2)"><path fill="#e6e7e8" d="M 36.4375 12.570312 C 36.292969 12.164062 36.152344 11.757812 35.988281 11.367188 C 35.613281 10.503906 35.167969 9.679688 34.675781 8.886719 C 34.402344 8.445312 34.113281 8.023438 33.804688 7.605469 C 33.386719 7.042969 32.941406 6.503906 32.460938 5.988281 C 32.15625 5.660156 31.839844 5.347656 31.511719 5.039062 L 31.382812 4.925781 C 30.710938 4.308594 30.003906 3.726562 29.246094 3.210938 C 28.789062 2.902344 28.3125 2.617188 27.828125 2.347656 C 26.65625 1.699219 25.410156 1.171875 24.101562 0.785156 L 16.371094 2.191406 L 11.777344 1.355469 C 10.652344 1.808594 9.582031 2.363281 8.574219 3.015625 C 8.1875 3.265625 7.816406 3.535156 7.449219 3.816406 L 7.324219 3.910156 C 6.582031 4.480469 5.882812 5.097656 5.238281 5.769531 C 4.980469 6.039062 4.730469 6.3125 4.488281 6.597656 C 4.449219 6.644531 4.402344 6.683594 4.363281 6.734375 C 4.050781 7.109375 3.757812 7.503906 3.476562 7.902344 C 3.285156 8.167969 3.105469 8.4375 2.929688 8.714844 C 2.582031 9.261719 2.261719 9.832031 1.972656 10.417969 C 1.773438 10.820312 1.574219 11.222656 1.402344 11.640625 L 10.207031 10.039062 L 37.109375 14.933594 C 36.941406 14.125 36.707031 13.339844 36.4375 12.570312 Z M 36.4375 12.570312 " fill-opacity="1" fill-rule="nonzero"/></g><path fill="#bcbec0" d="M 35.984375 11.367188 L 19.449219 8.355469 L 25.609375 7.238281 L 28.6875 6.675781 L 32.460938 5.988281 C 32.15625 5.660156 31.839844 5.347656 31.511719 5.039062 L 25.605469 6.117188 L 22.527344 6.675781 L 16.367188 7.796875 L 13.289062 8.355469 L 7.128906 9.476562 L 1.972656 10.417969 C 1.773438 10.820312 1.574219 11.222656 1.402344 11.640625 L 10.207031 10.039062 L 16.367188 8.917969 L 36.4375 12.570312 C 36.292969 12.164062 36.152344 11.757812 35.984375 11.367188 Z M 35.984375 11.367188 " fill-opacity="1" fill-rule="nonzero"/><path fill="#d1d3d4" d="M 28.6875 6.675781 L 33.804688 7.605469 C 34.113281 8.019531 34.402344 8.445312 34.675781 8.886719 L 25.609375 7.238281 Z M 8.574219 3.015625 C 8.1875 3.265625 7.816406 3.535156 7.449219 3.816406 L 10.207031 3.3125 Z M 27.828125 2.347656 L 22.527344 3.3125 L 16.367188 4.433594 L 13.289062 4.992188 L 7.128906 6.117188 L 4.488281 6.597656 C 4.449219 6.644531 4.402344 6.683594 4.363281 6.734375 C 4.050781 7.109375 3.757812 7.503906 3.476562 7.902344 L 7.128906 7.238281 L 10.207031 6.675781 L 16.367188 5.554688 L 19.449219 4.996094 L 25.609375 3.875 L 29.246094 3.210938 C 28.789062 2.902344 28.3125 2.617188 27.828125 2.347656 Z M 27.828125 2.347656 " fill-opacity="1" fill-rule="nonzero"/></svg>