<svg xmlns="http://www.w3.org/2000/svg" xmlns:xlink="http://www.w3.org/1999/xlink" width="50" zoomAndPan="magnify" viewBox="0 0 37.5 37.499999" height="50" preserveAspectRatio="xMidYMid meet" version="1.0"><defs><clipPath id="id1"><path d="M 0 0 L 37.007812 0 L 37.007812 37.007812 L 0 37.007812 Z M 0 0 " clip-rule="nonzero"/></clipPath></defs><g clip-path="url(#id1)"><path fill="#ffdc5d" d="M 37.5 18.75 C 37.5 29.105469 29.105469 37.5 18.75 37.5 C 8.394531 37.5 0 29.105469 0 18.75 C 0 8.394531 8.394531 0 18.75 0 C 29.105469 0 37.5 8.394531 37.5 18.75 " fill-opacity="1" fill-rule="nonzero"/></g><path fill="#664500" d="M 26.546875 29.039062 C 26.5 28.855469 25.332031 24.480469 18.75 24.480469 C 12.167969 24.480469 11 28.855469 10.953125 29.039062 C 10.894531 29.265625 10.996094 29.5 11.199219 29.617188 C 11.402344 29.734375 11.65625 29.699219 11.824219 29.539062 C 11.84375 29.519531 13.859375 27.605469 18.75 27.605469 C 23.640625 27.605469 25.65625 29.519531 25.675781 29.535156 C 25.773438 29.636719 25.910156 29.6875 26.042969 29.6875 C 26.128906 29.6875 26.21875 29.664062 26.296875 29.621094 C 26.503906 29.503906 26.605469 29.269531 26.546875 29.039062 Z M 30.210938 14.582031 C 29.890625 14.582031 29.582031 14.441406 29.375 14.167969 C 26.839844 10.789062 22.589844 13.285156 22.410156 13.394531 C 21.914062 13.691406 21.277344 13.527344 20.980469 13.035156 C 20.683594 12.542969 20.84375 11.902344 21.339844 11.605469 C 23.417969 10.355469 28.125 9.027344 31.039062 12.914062 C 31.386719 13.375 31.292969 14.027344 30.832031 14.375 C 30.644531 14.515625 30.425781 14.582031 30.210938 14.582031 Z M 7.289062 14.582031 C 7.074219 14.582031 6.855469 14.515625 6.667969 14.375 C 6.207031 14.03125 6.113281 13.378906 6.457031 12.917969 C 9.375 9.027344 14.082031 10.359375 16.160156 11.605469 C 16.652344 11.902344 16.8125 12.542969 16.519531 13.035156 C 16.222656 13.527344 15.585938 13.691406 15.089844 13.394531 C 14.902344 13.285156 10.636719 10.816406 8.125 14.167969 C 7.921875 14.441406 7.605469 14.582031 7.289062 14.582031 Z M 30.207031 16.667969 C 30.207031 16.089844 29.742188 15.625 29.167969 15.625 L 21.875 15.625 C 21.300781 15.625 20.832031 16.089844 20.832031 16.667969 C 20.832031 17.242188 21.300781 17.707031 21.875 17.707031 L 27.179688 17.707031 C 27.394531 18.3125 27.964844 18.75 28.644531 18.75 C 29.507812 18.75 30.207031 18.050781 30.207031 17.1875 C 30.207031 17.074219 30.195312 16.960938 30.171875 16.851562 C 30.183594 16.789062 30.207031 16.730469 30.207031 16.667969 Z M 16.667969 16.667969 C 16.667969 16.089844 16.199219 15.625 15.625 15.625 L 8.332031 15.625 C 7.757812 15.625 7.292969 16.089844 7.292969 16.667969 C 7.292969 17.242188 7.757812 17.707031 8.332031 17.707031 L 13.636719 17.707031 C 13.851562 18.3125 14.425781 18.75 15.105469 18.75 C 15.964844 18.75 16.667969 18.050781 16.667969 17.1875 C 16.667969 17.074219 16.652344 16.960938 16.628906 16.851562 C 16.640625 16.789062 16.667969 16.730469 16.667969 16.667969 Z M 16.667969 16.667969 " fill-opacity="1" fill-rule="nonzero"/></svg>