<svg xmlns="http://www.w3.org/2000/svg" xmlns:xlink="http://www.w3.org/1999/xlink" width="50" zoomAndPan="magnify" viewBox="0 0 37.5 37.499999" height="50" preserveAspectRatio="xMidYMid meet" version="1.0"><defs><clipPath id="id1"><path d="M 0 0 L 37.007812 0 L 37.007812 37.007812 L 0 37.007812 Z M 0 0 " clip-rule="nonzero"/></clipPath></defs><g clip-path="url(#id1)"><path fill="#ffdc5d" d="M 37.5 18.75 C 37.5 29.105469 29.105469 37.5 18.75 37.5 C 8.394531 37.5 0 29.105469 0 18.75 C 0 8.394531 8.394531 0 18.75 0 C 29.105469 0 37.5 8.394531 37.5 18.75 " fill-opacity="1" fill-rule="nonzero"/></g><path fill="#664500" d="M 14.582031 17.1875 C 14.582031 17.671875 14.515625 18.136719 14.386719 18.582031 C 14.253906 19.03125 14.066406 19.421875 13.820312 19.765625 C 13.578125 20.105469 13.292969 20.371094 12.976562 20.554688 C 12.65625 20.742188 12.324219 20.832031 11.980469 20.832031 C 11.632812 20.832031 11.300781 20.742188 10.984375 20.554688 C 10.664062 20.371094 10.382812 20.105469 10.136719 19.765625 C 9.894531 19.421875 9.707031 19.03125 9.574219 18.582031 C 9.441406 18.136719 9.375 17.671875 9.375 17.1875 C 9.375 16.703125 9.441406 16.238281 9.574219 15.792969 C 9.707031 15.34375 9.894531 14.953125 10.136719 14.609375 C 10.382812 14.269531 10.664062 14.003906 10.984375 13.820312 C 11.300781 13.632812 11.632812 13.542969 11.980469 13.542969 C 12.324219 13.542969 12.65625 13.632812 12.976562 13.820312 C 13.292969 14.003906 13.578125 14.269531 13.820312 14.609375 C 14.066406 14.953125 14.253906 15.34375 14.386719 15.792969 C 14.515625 16.238281 14.582031 16.703125 14.582031 17.1875 Z M 14.582031 17.1875 " fill-opacity="1" fill-rule="nonzero"/><path fill="#664500" d="M 28.125 17.1875 C 28.125 17.671875 28.058594 18.136719 27.925781 18.582031 C 27.792969 19.03125 27.605469 19.421875 27.363281 19.765625 C 27.117188 20.105469 26.835938 20.371094 26.515625 20.554688 C 26.199219 20.742188 25.867188 20.832031 25.519531 20.832031 C 25.175781 20.832031 24.84375 20.742188 24.523438 20.554688 C 24.207031 20.371094 23.921875 20.105469 23.679688 19.765625 C 23.433594 19.421875 23.246094 19.03125 23.113281 18.582031 C 22.984375 18.136719 22.917969 17.671875 22.917969 17.1875 C 22.917969 16.703125 22.984375 16.238281 23.113281 15.792969 C 23.246094 15.34375 23.433594 14.953125 23.679688 14.609375 C 23.921875 14.269531 24.207031 14.003906 24.523438 13.820312 C 24.84375 13.632812 25.175781 13.542969 25.519531 13.542969 C 25.867188 13.542969 26.199219 13.632812 26.515625 13.820312 C 26.835938 14.003906 27.117188 14.269531 27.363281 14.609375 C 27.605469 14.953125 27.792969 15.34375 27.925781 15.792969 C 28.058594 16.238281 28.125 16.703125 28.125 17.1875 Z M 28.125 17.1875 " fill-opacity="1" fill-rule="nonzero"/><path fill="#664500" d="M 12.5 29.167969 C 14.582031 23.957031 26.042969 23.957031 26.042969 26.042969 C 26.042969 27.082031 17.707031 25 12.5 29.167969 Z M 12.5 29.167969 " fill-opacity="1" fill-rule="nonzero"/></svg>