<svg xmlns="http://www.w3.org/2000/svg" xmlns:xlink="http://www.w3.org/1999/xlink" width="50" zoomAndPan="magnify" viewBox="0 0 37.5 37.499999" height="50" preserveAspectRatio="xMidYMid meet" version="1.0"><defs><clipPath id="id1"><path d="M 2.828125 3.75 L 34.328125 3.75 L 34.328125 35.25 L 2.828125 35.25 Z M 2.828125 3.75 " clip-rule="nonzero"/></clipPath></defs><g clip-path="url(#id1)"><path fill="#ffdc5d" d="M 34.328125 19.5 C 34.328125 28.199219 27.273438 35.25 18.578125 35.25 C 9.878906 35.25 2.828125 28.199219 2.828125 19.5 C 2.828125 10.800781 9.878906 3.75 18.578125 3.75 C 27.273438 3.75 34.328125 10.800781 34.328125 19.5 " fill-opacity="1" fill-rule="nonzero"/></g><path fill="#664500" d="M 21.203125 26.5 C 21.203125 26.847656 21.132812 27.183594 21 27.503906 C 20.867188 27.824219 20.679688 28.109375 20.433594 28.355469 C 20.1875 28.601562 19.902344 28.792969 19.582031 28.925781 C 19.257812 29.058594 18.925781 29.125 18.578125 29.125 C 18.226562 29.125 17.894531 29.058594 17.570312 28.925781 C 17.25 28.792969 16.964844 28.601562 16.71875 28.355469 C 16.472656 28.109375 16.285156 27.824219 16.152344 27.503906 C 16.019531 27.183594 15.953125 26.847656 15.953125 26.5 C 15.953125 26.152344 16.019531 25.816406 16.152344 25.496094 C 16.285156 25.175781 16.472656 24.890625 16.71875 24.644531 C 16.964844 24.398438 17.25 24.207031 17.570312 24.074219 C 17.894531 23.941406 18.226562 23.875 18.578125 23.875 C 18.925781 23.875 19.257812 23.941406 19.582031 24.074219 C 19.902344 24.207031 20.1875 24.398438 20.433594 24.644531 C 20.679688 24.890625 20.867188 25.175781 21 25.496094 C 21.132812 25.816406 21.203125 26.152344 21.203125 26.5 Z M 21.203125 26.5 " fill-opacity="1" fill-rule="nonzero"/><path fill="#664500" d="M 17.972656 18.285156 C 17.820312 18.160156 17.601562 18.15625 17.441406 18.273438 C 17.429688 18.28125 16.339844 19.0625 14.203125 19.0625 C 12.066406 19.0625 10.972656 18.28125 10.964844 18.273438 C 10.804688 18.15625 10.582031 18.160156 10.429688 18.28125 C 10.273438 18.40625 10.222656 18.621094 10.300781 18.800781 C 10.355469 18.921875 11.613281 21.6875 14.203125 21.6875 C 16.789062 21.6875 18.046875 18.921875 18.101562 18.800781 C 18.183594 18.621094 18.128906 18.410156 17.972656 18.285156 Z M 26.722656 18.285156 C 26.570312 18.160156 26.351562 18.15625 26.191406 18.273438 C 26.179688 18.28125 25.085938 19.0625 22.953125 19.0625 C 20.816406 19.0625 19.722656 18.28125 19.714844 18.273438 C 19.554688 18.15625 19.335938 18.160156 19.179688 18.28125 C 19.023438 18.40625 18.972656 18.621094 19.050781 18.800781 C 19.105469 18.921875 20.363281 21.6875 22.953125 21.6875 C 25.539062 21.6875 26.796875 18.921875 26.851562 18.800781 C 26.933594 18.621094 26.878906 18.410156 26.722656 18.285156 Z M 26.722656 18.285156 " fill-opacity="1" fill-rule="nonzero"/><path fill="#2a6797" d="M 16.824219 8.238281 L 15.070312 8.238281 C 14.695312 8.238281 14.390625 8 14.390625 7.578125 C 14.390625 7.15625 14.695312 6.917969 15.070312 6.917969 L 18.503906 6.917969 C 18.640625 6.917969 18.996094 6.980469 18.996094 7.390625 C 18.996094 7.589844 18.957031 7.683594 18.839844 7.839844 L 16.457031 11.179688 L 18.453125 11.179688 C 18.828125 11.179688 19.132812 11.421875 19.132812 11.839844 C 19.132812 12.257812 18.828125 12.5 18.453125 12.5 L 14.933594 12.5 C 14.597656 12.5 14.316406 12.332031 14.316406 11.988281 C 14.316406 11.820312 14.398438 11.660156 14.453125 11.578125 Z M 23.390625 5.773438 L 21.34375 5.773438 C 20.902344 5.773438 20.546875 5.492188 20.546875 5.003906 C 20.546875 4.511719 20.902344 4.230469 21.34375 4.230469 L 25.351562 4.230469 C 25.511719 4.230469 25.929688 4.304688 25.929688 4.78125 C 25.929688 5.011719 25.878906 5.125 25.742188 5.308594 L 22.960938 9.207031 L 25.289062 9.207031 C 25.730469 9.207031 26.085938 9.488281 26.085938 9.976562 C 26.085938 10.46875 25.730469 10.75 25.289062 10.75 L 21.183594 10.75 C 20.792969 10.75 20.460938 10.554688 20.460938 10.148438 C 20.460938 9.953125 20.558594 9.769531 20.621094 9.671875 Z M 30.390625 8.730469 L 27.757812 8.730469 C 27.191406 8.730469 26.734375 8.367188 26.734375 7.738281 C 26.734375 7.105469 27.191406 6.742188 27.757812 6.742188 L 32.910156 6.742188 C 33.117188 6.742188 33.652344 6.835938 33.652344 7.453125 C 33.652344 7.75 33.589844 7.894531 33.414062 8.128906 L 29.839844 13.140625 L 32.832031 13.140625 C 33.398438 13.140625 33.855469 13.5 33.855469 14.132812 C 33.855469 14.761719 33.398438 15.125 32.832031 15.125 L 27.554688 15.125 C 27.050781 15.125 26.625 14.871094 26.625 14.351562 C 26.625 14.097656 26.75 13.863281 26.828125 13.738281 Z M 30.390625 8.730469 " fill-opacity="1" fill-rule="nonzero"/></svg>