<svg xmlns="http://www.w3.org/2000/svg" xmlns:xlink="http://www.w3.org/1999/xlink" width="50" zoomAndPan="magnify" viewBox="0 0 37.5 37.499999" height="50" preserveAspectRatio="xMidYMid meet" version="1.0"><defs><clipPath id="id1"><path d="M 0 0 L 34.5 0 L 34.5 35 L 0 35 Z M 0 0 " clip-rule="nonzero"/></clipPath></defs><g clip-path="url(#id1)"><path fill="#ffcc4d" d="M 34.5 17.328125 C 34.5 26.855469 26.777344 34.578125 17.25 34.578125 C 7.722656 34.578125 0 26.855469 0 17.328125 C 0 7.804688 7.722656 0.078125 17.25 0.078125 C 26.777344 0.078125 34.5 7.804688 34.5 17.328125 " fill-opacity="1" fill-rule="nonzero"/></g><path fill="#664500" d="M 24.351562 19.867188 C 24.351562 20.367188 24.308594 20.859375 24.214844 21.351562 C 24.125 21.839844 23.992188 22.316406 23.8125 22.777344 C 23.632812 23.238281 23.414062 23.679688 23.15625 24.09375 C 22.898438 24.507812 22.601562 24.894531 22.273438 25.246094 C 21.941406 25.601562 21.582031 25.917969 21.195312 26.195312 C 20.808594 26.472656 20.398438 26.707031 19.96875 26.898438 C 19.539062 27.089844 19.09375 27.234375 18.636719 27.332031 C 18.179688 27.425781 17.714844 27.476562 17.25 27.476562 C 16.785156 27.476562 16.320312 27.425781 15.863281 27.332031 C 15.40625 27.234375 14.960938 27.089844 14.53125 26.898438 C 14.101562 26.707031 13.691406 26.472656 13.304688 26.195312 C 12.917969 25.917969 12.558594 25.601562 12.226562 25.246094 C 11.898438 24.894531 11.601562 24.507812 11.34375 24.09375 C 11.085938 23.679688 10.867188 23.238281 10.6875 22.777344 C 10.507812 22.316406 10.375 21.839844 10.285156 21.351562 C 10.191406 20.859375 10.148438 20.367188 10.148438 19.867188 C 10.148438 19.367188 10.191406 18.871094 10.285156 18.382812 C 10.375 17.890625 10.507812 17.414062 10.6875 16.953125 C 10.867188 16.492188 11.085938 16.054688 11.34375 15.636719 C 11.601562 15.222656 11.898438 14.839844 12.226562 14.484375 C 12.558594 14.132812 12.917969 13.816406 13.304688 13.539062 C 13.691406 13.261719 14.101562 13.027344 14.53125 12.835938 C 14.960938 12.644531 15.40625 12.5 15.863281 12.402344 C 16.320312 12.304688 16.785156 12.257812 17.25 12.257812 C 17.714844 12.257812 18.179688 12.304688 18.636719 12.402344 C 19.09375 12.5 19.539062 12.644531 19.96875 12.835938 C 20.398438 13.027344 20.808594 13.261719 21.195312 13.539062 C 21.582031 13.816406 21.941406 14.132812 22.273438 14.484375 C 22.601562 14.839844 22.898438 15.222656 23.15625 15.636719 C 23.414062 16.054688 23.632812 16.492188 23.8125 16.953125 C 23.992188 17.414062 24.125 17.890625 24.214844 18.382812 C 24.308594 18.871094 24.351562 19.367188 24.351562 19.867188 Z M 24.351562 19.867188 " fill-opacity="1" fill-rule="nonzero"/><path fill="#f4900c" d="M 21.785156 27.851562 C 21.785156 27.851562 22.796875 27.121094 21.949219 26.214844 C 21.105469 25.308594 20.304688 26.269531 20.304688 26.269531 L 16.097656 30.191406 C 16.027344 29.984375 15.632812 29.4375 15.539062 29.230469 L 21.378906 23.785156 C 21.378906 23.785156 22.390625 23.054688 21.546875 22.144531 C 20.699219 21.242188 19.898438 22.199219 19.898438 22.199219 L 14.40625 27.316406 C 14.28125 27.15625 13.9375 26.769531 13.804688 26.609375 L 20.171875 20.675781 C 20.171875 20.675781 21.183594 19.941406 20.339844 19.035156 C 19.496094 18.128906 18.695312 19.089844 18.695312 19.089844 L 12.324219 25.023438 C 12.171875 24.875 11.703125 24.402344 11.546875 24.265625 L 17.5 18.714844 C 17.5 18.714844 18.511719 17.984375 17.667969 17.078125 C 16.820312 16.171875 16.023438 17.128906 16.023438 17.128906 L 9.726562 22.996094 L 9.222656 23.46875 L 9 23.675781 C 9 23.675781 8.453125 24.433594 7.898438 23.859375 L 9.765625 19.640625 C 9.765625 19.640625 10.355469 18.550781 9.265625 17.960938 C 8.175781 17.371094 7.585938 18.460938 7.585938 18.460938 L 5.894531 21.257812 C 5.222656 22.367188 4.527344 23.46875 3.703125 24.472656 C 1.386719 27.308594 1.460938 31.488281 4.027344 34.242188 C 6.824219 37.246094 11.53125 37.410156 14.535156 34.613281 L 14.988281 34.1875 Z M 21.785156 27.851562 " fill-opacity="1" fill-rule="nonzero"/><path fill="#664500" d="M 10.164062 6.25 C 7.875 6.863281 6.632812 8.242188 6.554688 8.328125 C 6.1875 8.75 6.226562 9.390625 6.648438 9.761719 C 7.070312 10.132812 7.710938 10.089844 8.082031 9.667969 C 8.160156 9.582031 10.199219 7.382812 13.976562 8.15625 C 14.527344 8.269531 15.0625 7.914062 15.171875 7.363281 C 15.285156 6.816406 14.929688 6.277344 14.382812 6.167969 C 12.722656 5.828125 11.3125 5.941406 10.164062 6.25 Z M 24.335938 6.25 C 23.1875 5.941406 21.777344 5.828125 20.117188 6.167969 C 19.566406 6.277344 19.214844 6.816406 19.324219 7.363281 C 19.441406 7.914062 19.972656 8.265625 20.523438 8.15625 C 24.300781 7.382812 26.339844 9.582031 26.421875 9.671875 C 26.796875 10.085938 27.4375 10.125 27.855469 9.753906 C 28.269531 9.382812 28.3125 8.746094 27.941406 8.328125 C 27.867188 8.242188 26.625 6.863281 24.335938 6.25 Z M 24.335938 6.25 " fill-opacity="1" fill-rule="nonzero"/></svg>