<svg xmlns="http://www.w3.org/2000/svg" xmlns:xlink="http://www.w3.org/1999/xlink" width="50" zoomAndPan="magnify" viewBox="0 0 37.5 37.499999" height="50" preserveAspectRatio="xMidYMid meet" version="1.0"><defs><clipPath id="id1"><path d="M 21 0 L 28.125 0 L 28.125 8 L 21 8 Z M 21 0 " clip-rule="nonzero"/></clipPath><clipPath id="id2"><path d="M 9.375 12 L 20 12 L 20 37.007812 L 9.375 37.007812 Z M 9.375 12 " clip-rule="nonzero"/></clipPath></defs><g clip-path="url(#id1)"><path fill="#664500" d="M 28.125 3.808594 C 28.125 4.3125 28.042969 4.800781 27.878906 5.265625 C 27.714844 5.734375 27.484375 6.144531 27.179688 6.5 C 26.878906 6.859375 26.53125 7.132812 26.136719 7.328125 C 25.742188 7.519531 25.328125 7.617188 24.902344 7.617188 C 24.476562 7.617188 24.0625 7.519531 23.667969 7.328125 C 23.273438 7.132812 22.925781 6.859375 22.625 6.5 C 22.320312 6.144531 22.089844 5.734375 21.925781 5.265625 C 21.761719 4.800781 21.679688 4.3125 21.679688 3.808594 C 21.679688 3.304688 21.761719 2.816406 21.925781 2.351562 C 22.089844 1.882812 22.320312 1.472656 22.625 1.117188 C 22.925781 0.757812 23.273438 0.484375 23.667969 0.289062 C 24.0625 0.0976562 24.476562 0 24.902344 0 C 25.328125 0 25.742188 0.0976562 26.136719 0.289062 C 26.53125 0.484375 26.878906 0.757812 27.179688 1.117188 C 27.484375 1.472656 27.714844 1.882812 27.878906 2.351562 C 28.042969 2.816406 28.125 3.304688 28.125 3.808594 Z M 28.125 3.808594 " fill-opacity="1" fill-rule="nonzero"/></g><path fill="#664500" d="M 19.238281 13.328125 C 18.238281 12.359375 17.105469 11.257812 17.398438 10.542969 C 17.65625 9.910156 18.464844 9.335938 19.175781 8.832031 C 19.570312 8.554688 19.941406 8.289062 20.210938 8.035156 C 20.90625 7.476562 20.996094 6.394531 20.414062 5.621094 C 20.15625 5.277344 19.742188 5.054688 19.253906 4.996094 C 18.71875 4.933594 18.183594 5.066406 17.804688 5.375 C 13.273438 9.546875 13.148438 9.660156 13.148438 9.660156 C 12.480469 10.277344 12.410156 11.179688 12.972656 11.960938 L 13.550781 12.515625 C 13.574219 12.542969 13.605469 12.5625 13.636719 12.574219 C 13.957031 12.882812 14.28125 13.1875 14.601562 13.484375 C 15.515625 14.335938 16.460938 15.21875 17.246094 16.207031 C 17.636719 16.699219 18.449219 17.730469 19.488281 17.730469 C 19.734375 17.730469 19.996094 17.671875 20.269531 17.53125 C 20.851562 17.230469 21.183594 16.847656 21.25 16.390625 C 21.394531 15.421875 20.347656 14.40625 19.238281 13.328125 Z M 19.238281 13.328125 " fill-opacity="1" fill-rule="nonzero"/><path fill="#664500" d="M 25.839844 17.289062 L 22.910156 16.703125 C 22.75 16.671875 22.597656 16.777344 22.5625 16.933594 C 22.53125 17.09375 22.636719 17.246094 22.792969 17.28125 L 25.722656 17.867188 C 25.742188 17.871094 25.761719 17.871094 25.78125 17.871094 C 25.917969 17.871094 26.039062 17.773438 26.070312 17.636719 C 26.101562 17.476562 25.996094 17.324219 25.839844 17.289062 Z M 25.839844 17.289062 " fill-opacity="1" fill-rule="nonzero"/><path fill="#664500" d="M 21.660156 18.941406 C 21.605469 18.789062 21.433594 18.710938 21.285156 18.769531 C 21.132812 18.824219 21.054688 18.996094 21.113281 19.144531 L 21.992188 21.488281 C 22.035156 21.605469 22.148438 21.679688 22.265625 21.679688 C 22.300781 21.679688 22.335938 21.671875 22.367188 21.660156 C 22.519531 21.605469 22.597656 21.433594 22.539062 21.285156 Z M 21.660156 18.941406 " fill-opacity="1" fill-rule="nonzero"/><path fill="#664500" d="M 22.472656 17.957031 C 22.359375 17.84375 22.171875 17.84375 22.058594 17.957031 C 21.945312 18.070312 21.945312 18.257812 22.058594 18.371094 L 23.816406 20.128906 C 23.875 20.1875 23.949219 20.214844 24.023438 20.214844 C 24.097656 20.214844 24.171875 20.1875 24.230469 20.128906 C 24.34375 20.015625 24.34375 19.828125 24.230469 19.714844 Z M 22.472656 17.957031 " fill-opacity="1" fill-rule="nonzero"/><path fill="#664500" d="M 20.597656 8.476562 C 20.296875 8.757812 19.917969 9.023438 19.515625 9.308594 C 18.898438 9.746094 18.132812 10.289062 17.941406 10.765625 C 17.9375 10.765625 17.882812 10.945312 18.296875 11.484375 C 18.644531 11.9375 19.152344 12.429688 19.648438 12.910156 C 20.53125 13.769531 21.378906 14.59375 21.707031 15.464844 L 24.289062 12.121094 C 25.207031 10.914062 25.414062 9.480469 24.972656 8.199219 C 24.949219 8.199219 24.925781 8.203125 24.902344 8.203125 C 23.101562 8.203125 21.59375 6.753906 21.199219 4.816406 C 20.871094 4.734375 20.535156 4.691406 20.199219 4.6875 C 20.46875 4.832031 20.703125 5.03125 20.882812 5.269531 C 21.648438 6.28125 21.519531 7.714844 20.597656 8.476562 Z M 20.597656 8.476562 " fill-opacity="1" fill-rule="nonzero"/><g clip-path="url(#id2)"><path fill="#664500" d="M 19.507812 18.3125 C 19.5 18.3125 19.492188 18.316406 19.488281 18.316406 C 18.164062 18.316406 17.234375 17.136719 16.785156 16.570312 C 16.03125 15.613281 15.101562 14.75 14.195312 13.90625 C 13.898438 13.628906 13.589844 13.34375 13.289062 13.050781 C 13.238281 13.019531 13.1875 12.980469 13.140625 12.9375 L 12.566406 12.378906 L 12.527344 12.34375 L 12.496094 12.300781 C 12.457031 12.25 12.425781 12.195312 12.390625 12.140625 L 9.652344 15.726562 C 9.488281 15.941406 9.402344 16.191406 9.382812 16.441406 C 9.382812 16.429688 9.382812 16.417969 9.382812 16.410156 L 9.375 16.40625 L 9.378906 16.53125 C 9.378906 16.523438 9.382812 16.511719 9.382812 16.503906 C 9.378906 16.574219 9.378906 16.648438 9.390625 16.71875 L 10.269531 36.839844 C 10.269531 37.203125 10.566406 37.5 10.933594 37.5 L 14.160156 37.5 C 14.957031 37.5 15.621094 37.476562 15.78125 36.914062 L 15.914062 36.914062 C 16.832031 36.914062 17.578125 36.886719 17.578125 36.042969 C 17.578125 35.199219 16.832031 34.84375 15.914062 34.84375 L 15.636719 34.84375 L 16.300781 23.207031 C 16.582031 22.71875 16.992188 21.578125 17.3125 21.15625 Z M 10.933594 36.914062 C 10.890625 36.914062 10.855469 36.882812 10.855469 36.839844 L 10.855469 36.8125 L 10.019531 17.707031 L 12.304688 19.871094 L 12.304688 36.257812 C 12.304688 36.621094 12.601562 36.914062 12.972656 36.914062 Z M 12.972656 36.328125 C 12.925781 36.328125 12.890625 36.296875 12.890625 36.257812 L 12.890625 20.425781 L 14.082031 21.550781 L 13.300781 35.375 L 13.265625 35.996094 L 14.160156 35.996094 C 14.539062 35.996094 14.96875 36.0625 15.148438 36.328125 Z M 15.050781 34.808594 L 15.015625 35.429688 L 15.914062 35.429688 C 16.40625 35.429688 16.992188 35.535156 16.992188 36.042969 C 16.992188 36.226562 16.992188 36.328125 15.914062 36.328125 L 15.789062 36.328125 C 15.632812 35.6875 14.964844 35.410156 14.160156 35.410156 L 13.886719 35.410156 L 14.640625 22.078125 L 14.386719 21.839844 L 15.722656 23.101562 Z M 15.050781 34.808594 " fill-opacity="1" fill-rule="nonzero"/></g></svg>