<svg xmlns="http://www.w3.org/2000/svg" xmlns:xlink="http://www.w3.org/1999/xlink" width="50" zoomAndPan="magnify" viewBox="0 0 37.5 37.499999" height="50" preserveAspectRatio="xMidYMid meet" version="1.0"><defs><clipPath id="id1"><path d="M 0 0 L 37.007812 0 L 37.007812 37.007812 L 0 37.007812 Z M 0 0 " clip-rule="nonzero"/></clipPath><clipPath id="id2"><path d="M 0 0 L 37.007812 0 L 37.007812 23 L 0 23 Z M 0 0 " clip-rule="nonzero"/></clipPath></defs><g clip-path="url(#id1)"><path fill="#ffcc4d" d="M 37.5 18.75 C 37.5 29.105469 29.105469 37.5 18.75 37.5 C 8.394531 37.5 0 29.105469 0 18.75 C 0 8.394531 8.394531 0 18.75 0 C 29.105469 0 37.5 8.394531 37.5 18.75 " fill-opacity="1" fill-rule="nonzero"/></g><path fill="#664500" d="M 14.582031 17.1875 C 14.582031 17.671875 14.515625 18.136719 14.386719 18.582031 C 14.253906 19.03125 14.066406 19.421875 13.820312 19.765625 C 13.578125 20.105469 13.292969 20.371094 12.976562 20.554688 C 12.65625 20.742188 12.324219 20.832031 11.980469 20.832031 C 11.632812 20.832031 11.300781 20.742188 10.984375 20.554688 C 10.664062 20.371094 10.382812 20.105469 10.136719 19.765625 C 9.894531 19.421875 9.707031 19.03125 9.574219 18.582031 C 9.441406 18.136719 9.375 17.671875 9.375 17.1875 C 9.375 16.703125 9.441406 16.238281 9.574219 15.792969 C 9.707031 15.34375 9.894531 14.953125 10.136719 14.609375 C 10.382812 14.269531 10.664062 14.003906 10.984375 13.820312 C 11.300781 13.632812 11.632812 13.542969 11.980469 13.542969 C 12.324219 13.542969 12.65625 13.632812 12.976562 13.820312 C 13.292969 14.003906 13.578125 14.269531 13.820312 14.609375 C 14.066406 14.953125 14.253906 15.34375 14.386719 15.792969 C 14.515625 16.238281 14.582031 16.703125 14.582031 17.1875 Z M 14.582031 17.1875 " fill-opacity="1" fill-rule="nonzero"/><path fill="#664500" d="M 28.125 17.1875 C 28.125 17.671875 28.058594 18.136719 27.925781 18.582031 C 27.792969 19.03125 27.605469 19.421875 27.363281 19.765625 C 27.117188 20.105469 26.835938 20.371094 26.515625 20.554688 C 26.199219 20.742188 25.867188 20.832031 25.519531 20.832031 C 25.175781 20.832031 24.84375 20.742188 24.523438 20.554688 C 24.207031 20.371094 23.921875 20.105469 23.679688 19.765625 C 23.433594 19.421875 23.246094 19.03125 23.113281 18.582031 C 22.984375 18.136719 22.917969 17.671875 22.917969 17.1875 C 22.917969 16.703125 22.984375 16.238281 23.113281 15.792969 C 23.246094 15.34375 23.433594 14.953125 23.679688 14.609375 C 23.921875 14.269531 24.207031 14.003906 24.523438 13.820312 C 24.84375 13.632812 25.175781 13.542969 25.519531 13.542969 C 25.867188 13.542969 26.199219 13.632812 26.515625 13.820312 C 26.835938 14.003906 27.117188 14.269531 27.363281 14.609375 C 27.605469 14.953125 27.792969 15.34375 27.925781 15.792969 C 28.058594 16.238281 28.125 16.703125 28.125 17.1875 Z M 28.125 17.1875 " fill-opacity="1" fill-rule="nonzero"/><path fill="#664500" d="M 24.464844 29.039062 C 24.453125 28.996094 23.269531 24.480469 18.75 24.480469 C 14.230469 24.480469 13.046875 28.996094 13.039062 29.039062 C 12.980469 29.261719 13.082031 29.488281 13.277344 29.605469 C 13.472656 29.722656 13.730469 29.695312 13.898438 29.542969 C 13.910156 29.535156 14.957031 28.644531 18.75 28.644531 C 22.488281 28.644531 23.558594 29.511719 23.601562 29.542969 C 23.699219 29.636719 23.828125 29.6875 23.957031 29.6875 C 24.046875 29.6875 24.132812 29.664062 24.214844 29.621094 C 24.417969 29.503906 24.519531 29.269531 24.464844 29.039062 Z M 24.464844 29.039062 " fill-opacity="1" fill-rule="nonzero"/><path fill="#5dadec" d="M 10.417969 31.25 C 10.417969 34.128906 8.085938 36.457031 5.207031 36.457031 C 2.332031 36.457031 0 34.128906 0 31.25 C 0 28.371094 4.167969 20.832031 5.207031 20.832031 C 6.25 20.832031 10.417969 28.371094 10.417969 31.25 Z M 10.417969 31.25 " fill-opacity="1" fill-rule="nonzero"/><g clip-path="url(#id2)"><path fill="#bdddf4" d="M 18.75 11.457031 C 27.863281 11.457031 35.449219 16.15625 37.140625 22.378906 C 37.371094 21.203125 37.5 19.992188 37.5 18.75 C 37.5 8.394531 29.105469 0 18.75 0 C 8.394531 0 0 8.394531 0 18.75 C 0 19.992188 0.128906 21.203125 0.359375 22.378906 C 2.050781 16.15625 9.636719 11.457031 18.75 11.457031 Z M 18.75 11.457031 " fill-opacity="1" fill-rule="nonzero"/></g><path fill="#664500" d="M 31.25 12.5 C 25.464844 12.5 23.121094 7.949219 23.027344 7.757812 C 22.769531 7.242188 22.976562 6.617188 23.492188 6.359375 C 24.003906 6.101562 24.628906 6.308594 24.886719 6.820312 C 24.964844 6.972656 26.785156 10.417969 31.25 10.417969 C 31.824219 10.417969 32.292969 10.882812 32.292969 11.457031 C 32.292969 12.035156 31.824219 12.5 31.25 12.5 Z M 6.25 12.5 C 5.675781 12.5 5.207031 12.035156 5.207031 11.457031 C 5.207031 10.882812 5.675781 10.417969 6.25 10.417969 C 11.542969 10.417969 12.496094 7.167969 12.535156 7.027344 C 12.683594 6.476562 13.253906 6.144531 13.804688 6.289062 C 14.355469 6.433594 14.691406 6.992188 14.550781 7.542969 C 14.5 7.746094 13.234375 12.5 6.25 12.5 Z M 6.25 12.5 " fill-opacity="1" fill-rule="nonzero"/></svg>