<svg xmlns="http://www.w3.org/2000/svg" xmlns:xlink="http://www.w3.org/1999/xlink" width="50" zoomAndPan="magnify" viewBox="0 0 37.5 37.499999" height="50" preserveAspectRatio="xMidYMid meet" version="1.0"><defs><clipPath id="id1"><path d="M 0 0 L 37.007812 0 L 37.007812 37.007812 L 0 37.007812 Z M 0 0 " clip-rule="nonzero"/></clipPath></defs><g clip-path="url(#id1)"><path fill="#ffdc5d" d="M 37.5 18.75 C 37.5 29.105469 29.105469 37.5 18.75 37.5 C 8.394531 37.5 0 29.105469 0 18.75 C 0 8.394531 8.394531 0 18.75 0 C 29.105469 0 37.5 8.394531 37.5 18.75 " fill-opacity="1" fill-rule="nonzero"/></g><path fill="#664500" d="M 24.464844 30.082031 C 24.453125 30.035156 23.269531 25.519531 18.75 25.519531 C 14.230469 25.519531 13.046875 30.035156 13.035156 30.082031 C 12.980469 30.304688 13.082031 30.53125 13.277344 30.648438 C 13.472656 30.765625 13.730469 30.738281 13.898438 30.585938 C 13.910156 30.578125 14.953125 29.6875 18.75 29.6875 C 22.488281 29.6875 23.558594 30.550781 23.601562 30.585938 C 23.699219 30.679688 23.828125 30.730469 23.957031 30.730469 C 24.046875 30.730469 24.132812 30.707031 24.214844 30.664062 C 24.417969 30.546875 24.519531 30.308594 24.464844 30.082031 Z M 30.207031 12.5 C 24.421875 12.5 22.082031 7.949219 21.984375 7.757812 C 21.726562 7.242188 21.933594 6.617188 22.449219 6.359375 C 22.964844 6.101562 23.585938 6.308594 23.847656 6.820312 C 23.925781 6.972656 25.742188 10.417969 30.207031 10.417969 C 30.785156 10.417969 31.25 10.882812 31.25 11.457031 C 31.25 12.035156 30.785156 12.5 30.207031 12.5 Z M 7.292969 12.5 C 6.714844 12.5 6.25 12.035156 6.25 11.457031 C 6.25 10.882812 6.714844 10.417969 7.292969 10.417969 C 12.585938 10.417969 13.539062 7.167969 13.574219 7.027344 C 13.726562 6.476562 14.296875 6.144531 14.847656 6.289062 C 15.398438 6.433594 15.730469 6.992188 15.59375 7.542969 C 15.542969 7.746094 14.273438 12.5 7.292969 12.5 Z M 7.292969 12.5 " fill-opacity="1" fill-rule="nonzero"/><path fill="#664500" d="M 15.105469 17.1875 C 15.105469 17.671875 15.039062 18.136719 14.90625 18.582031 C 14.773438 19.03125 14.585938 19.421875 14.339844 19.765625 C 14.097656 20.105469 13.816406 20.371094 13.496094 20.554688 C 13.175781 20.742188 12.84375 20.832031 12.5 20.832031 C 12.15625 20.832031 11.824219 20.742188 11.503906 20.554688 C 11.183594 20.371094 10.902344 20.105469 10.660156 19.765625 C 10.414062 19.421875 10.226562 19.03125 10.09375 18.582031 C 9.960938 18.136719 9.894531 17.671875 9.894531 17.1875 C 9.894531 16.703125 9.960938 16.238281 10.09375 15.792969 C 10.226562 15.34375 10.414062 14.953125 10.660156 14.609375 C 10.902344 14.269531 11.183594 14.003906 11.503906 13.820312 C 11.824219 13.632812 12.15625 13.542969 12.5 13.542969 C 12.84375 13.542969 13.175781 13.632812 13.496094 13.820312 C 13.816406 14.003906 14.097656 14.269531 14.339844 14.609375 C 14.585938 14.953125 14.773438 15.34375 14.90625 15.792969 C 15.039062 16.238281 15.105469 16.703125 15.105469 17.1875 Z M 15.105469 17.1875 " fill-opacity="1" fill-rule="nonzero"/><path fill="#664500" d="M 27.605469 17.1875 C 27.605469 17.671875 27.539062 18.136719 27.40625 18.582031 C 27.273438 19.03125 27.085938 19.421875 26.839844 19.765625 C 26.597656 20.105469 26.316406 20.371094 25.996094 20.554688 C 25.675781 20.742188 25.34375 20.832031 25 20.832031 C 24.65625 20.832031 24.324219 20.742188 24.003906 20.554688 C 23.683594 20.371094 23.402344 20.105469 23.160156 19.765625 C 22.914062 19.421875 22.726562 19.03125 22.59375 18.582031 C 22.460938 18.136719 22.394531 17.671875 22.394531 17.1875 C 22.394531 16.703125 22.460938 16.238281 22.59375 15.792969 C 22.726562 15.34375 22.914062 14.953125 23.160156 14.609375 C 23.402344 14.269531 23.683594 14.003906 24.003906 13.820312 C 24.324219 13.632812 24.65625 13.542969 25 13.542969 C 25.34375 13.542969 25.675781 13.632812 25.996094 13.820312 C 26.316406 14.003906 26.597656 14.269531 26.839844 14.609375 C 27.085938 14.953125 27.273438 15.34375 27.40625 15.792969 C 27.539062 16.238281 27.605469 16.703125 27.605469 17.1875 Z M 27.605469 17.1875 " fill-opacity="1" fill-rule="nonzero"/></svg>