<svg xmlns="http://www.w3.org/2000/svg" xmlns:xlink="http://www.w3.org/1999/xlink" width="300" zoomAndPan="magnify" viewBox="0 0 224.87999 225" height="300" preserveAspectRatio="xMidYMid meet" version="1.0"><defs><g/></defs><g fill="#ff8d55" fill-opacity="0.4"><g transform="translate(24.149807, 102.230108)"><g><path d="M 29.253906 0 L 39.402344 0 L 23.300781 -23.8125 L 38.894531 -45.355469 L 29.199219 -45.355469 L 12.472656 -22.339844 L 12.472656 -45.355469 L 3.96875 -45.355469 L 3.96875 0 L 12.472656 0 L 12.472656 -8.957031 L 18.085938 -16.726562 Z M 29.253906 0 "/></g></g></g><g fill="#ff8d55" fill-opacity="0.4"><g transform="translate(67.518023, 102.230108)"><g><path d="M 30.277344 -36.964844 L 30.277344 -45.414062 L 3.96875 -45.414062 L 3.96875 0 L 30.277344 0 L 30.277344 -8.449219 L 12.472656 -8.449219 L 12.472656 -18.539062 L 23.074219 -18.539062 L 23.074219 -26.988281 L 12.472656 -26.988281 L 12.472656 -36.964844 Z M 30.277344 -36.964844 "/></g></g></g><g fill="#ff8d55" fill-opacity="0.4"><g transform="translate(101.759067, 102.230108)"><g><path d="M 38.042969 -45.355469 L 3.96875 -45.355469 L 3.96875 -36.910156 L 16.78125 -36.910156 L 16.78125 0 L 25.230469 0 L 25.230469 -36.910156 L 38.042969 -36.910156 Z M 38.042969 -45.355469 "/></g></g></g><g fill="#ff8d55" fill-opacity="0.4"><g transform="translate(143.766706, 102.230108)"><g><path d="M 25.171875 -45.925781 C 12.359375 -45.925781 1.984375 -35.546875 1.984375 -22.734375 C 1.984375 -9.921875 12.359375 0.453125 25.171875 0.453125 C 37.988281 0.453125 48.363281 -9.921875 48.363281 -22.734375 C 48.363281 -35.546875 37.988281 -45.925781 25.171875 -45.925781 Z M 25.171875 -37.25 C 33.222656 -37.25 38.894531 -30.730469 38.894531 -22.734375 C 38.894531 -14.742188 33.222656 -8.222656 25.171875 -8.222656 C 17.179688 -8.222656 11.507812 -14.742188 11.507812 -22.734375 C 11.507812 -30.730469 17.179688 -37.25 25.171875 -37.25 Z M 25.171875 -37.25 "/></g></g></g><g fill="#e53e3e" fill-opacity="1"><g transform="translate(27.458221, 100.960125)"><g><path d="M 29.253906 0 L 39.402344 0 L 23.300781 -23.8125 L 38.894531 -45.355469 L 29.199219 -45.355469 L 12.472656 -22.339844 L 12.472656 -45.355469 L 3.96875 -45.355469 L 3.96875 0 L 12.472656 0 L 12.472656 -8.957031 L 18.085938 -16.726562 Z M 29.253906 0 "/></g></g></g><g fill="#e53e3e" fill-opacity="1"><g transform="translate(70.826437, 100.960125)"><g><path d="M 30.277344 -36.964844 L 30.277344 -45.414062 L 3.96875 -45.414062 L 3.96875 0 L 30.277344 0 L 30.277344 -8.449219 L 12.472656 -8.449219 L 12.472656 -18.539062 L 23.074219 -18.539062 L 23.074219 -26.988281 L 12.472656 -26.988281 L 12.472656 -36.964844 Z M 30.277344 -36.964844 "/></g></g></g><g fill="#e53e3e" fill-opacity="1"><g transform="translate(105.06748, 100.960125)"><g><path d="M 38.042969 -45.355469 L 3.96875 -45.355469 L 3.96875 -36.910156 L 16.78125 -36.910156 L 16.78125 0 L 25.230469 0 L 25.230469 -36.910156 L 38.042969 -36.910156 Z M 38.042969 -45.355469 "/></g></g></g><g fill="#e53e3e" fill-opacity="1"><g transform="translate(147.075119, 100.960125)"><g><path d="M 25.171875 -45.925781 C 12.359375 -45.925781 1.984375 -35.546875 1.984375 -22.734375 C 1.984375 -9.921875 12.359375 0.453125 25.171875 0.453125 C 37.988281 0.453125 48.363281 -9.921875 48.363281 -22.734375 C 48.363281 -35.546875 37.988281 -45.925781 25.171875 -45.925781 Z M 25.171875 -37.25 C 33.222656 -37.25 38.894531 -30.730469 38.894531 -22.734375 C 38.894531 -14.742188 33.222656 -8.222656 25.171875 -8.222656 C 17.179688 -8.222656 11.507812 -14.742188 11.507812 -22.734375 C 11.507812 -30.730469 17.179688 -37.25 25.171875 -37.25 Z M 25.171875 -37.25 "/></g></g></g><g fill="#ffffff" fill-opacity="0.4"><g transform="translate(11.363395, 157.440585)"><g><path d="M 22.792969 0.566406 L 23.8125 0.566406 C 33.5625 0.511719 39.121094 -5.839844 39.515625 -12.132812 C 39.972656 -18.710938 34.980469 -26.082031 22.960938 -27.609375 L 22.847656 -27.609375 C 18.484375 -28.121094 13.949219 -30.277344 14.175781 -33.449219 C 14.34375 -35.71875 17.746094 -37.816406 23.925781 -37.53125 L 24.097656 -37.53125 C 27.496094 -37.53125 31.578125 -35.890625 33.675781 -34.359375 L 38.554688 -41.160156 C 35.320312 -43.484375 29.652344 -45.867188 24.210938 -45.867188 C 12.191406 -46.492188 6.351562 -40.367188 5.839844 -34.132812 C 5.554688 -30.503906 7.085938 -26.929688 10.035156 -24.210938 C 12.925781 -21.542969 17.066406 -19.84375 21.941406 -19.332031 C 28.574219 -18.425781 31.351562 -15.363281 31.183594 -12.699219 C 31.011719 -10.261719 28.40625 -7.824219 23.699219 -7.824219 L 23.414062 -7.824219 C 23.359375 -7.824219 17.179688 -7.484375 13.378906 -10.601562 C 12.417969 -11.339844 11.621094 -12.246094 10.886719 -13.324219 L 3.96875 -8.617188 C 5.101562 -6.917969 6.519531 -5.386719 8.109375 -4.082031 C 13.265625 0.113281 20.070312 0.566406 22.792969 0.566406 Z M 22.792969 0.566406 "/></g></g></g><g fill="#ffffff" fill-opacity="0.4"><g transform="translate(54.844987, 157.440585)"><g><path d="M 38.042969 -45.355469 L 3.96875 -45.355469 L 3.96875 -36.910156 L 16.78125 -36.910156 L 16.78125 0 L 25.230469 0 L 25.230469 -36.910156 L 38.042969 -36.910156 Z M 38.042969 -45.355469 "/></g></g></g><g fill="#ffffff" fill-opacity="0.4"><g transform="translate(96.852626, 157.440585)"><g><path d="M 29.199219 -45.414062 L 20.863281 -25.683594 L 12.472656 -45.414062 L 3.96875 -45.414062 L 16.613281 -15.703125 L 16.613281 0 L 25.058594 0 L 25.058594 -15.703125 L 37.644531 -45.414062 Z M 29.199219 -45.414062 "/></g></g></g><g fill="#ffffff" fill-opacity="0.4"><g transform="translate(138.463435, 157.440585)"><g><path d="M 12.417969 -8.449219 L 12.417969 -45.355469 L 3.96875 -45.355469 L 3.96875 0 L 30.21875 0 L 30.21875 -8.449219 Z M 12.417969 -8.449219 "/></g></g></g><g fill="#ffffff" fill-opacity="0.4"><g transform="translate(172.647803, 157.440585)"><g><path d="M 30.277344 -36.964844 L 30.277344 -45.414062 L 3.96875 -45.414062 L 3.96875 0 L 30.277344 0 L 30.277344 -8.449219 L 12.472656 -8.449219 L 12.472656 -18.539062 L 23.074219 -18.539062 L 23.074219 -26.988281 L 12.472656 -26.988281 L 12.472656 -36.964844 Z M 30.277344 -36.964844 "/></g></g></g><g fill="#f6ad55" fill-opacity="1"><g transform="translate(14.671808, 156.170607)"><g><path d="M 22.792969 0.566406 L 23.8125 0.566406 C 33.5625 0.511719 39.121094 -5.839844 39.515625 -12.132812 C 39.972656 -18.710938 34.980469 -26.082031 22.960938 -27.609375 L 22.847656 -27.609375 C 18.484375 -28.121094 13.949219 -30.277344 14.175781 -33.449219 C 14.34375 -35.71875 17.746094 -37.816406 23.925781 -37.53125 L 24.097656 -37.53125 C 27.496094 -37.53125 31.578125 -35.890625 33.675781 -34.359375 L 38.554688 -41.160156 C 35.320312 -43.484375 29.652344 -45.867188 24.210938 -45.867188 C 12.191406 -46.492188 6.351562 -40.367188 5.839844 -34.132812 C 5.554688 -30.503906 7.085938 -26.929688 10.035156 -24.210938 C 12.925781 -21.542969 17.066406 -19.84375 21.941406 -19.332031 C 28.574219 -18.425781 31.351562 -15.363281 31.183594 -12.699219 C 31.011719 -10.261719 28.40625 -7.824219 23.699219 -7.824219 L 23.414062 -7.824219 C 23.359375 -7.824219 17.179688 -7.484375 13.378906 -10.601562 C 12.417969 -11.339844 11.621094 -12.246094 10.886719 -13.324219 L 3.96875 -8.617188 C 5.101562 -6.917969 6.519531 -5.386719 8.109375 -4.082031 C 13.265625 0.113281 20.070312 0.566406 22.792969 0.566406 Z M 22.792969 0.566406 "/></g></g></g><g fill="#f6ad55" fill-opacity="1"><g transform="translate(58.153401, 156.170607)"><g><path d="M 38.042969 -45.355469 L 3.96875 -45.355469 L 3.96875 -36.910156 L 16.78125 -36.910156 L 16.78125 0 L 25.230469 0 L 25.230469 -36.910156 L 38.042969 -36.910156 Z M 38.042969 -45.355469 "/></g></g></g><g fill="#f6ad55" fill-opacity="1"><g transform="translate(100.16104, 156.170607)"><g><path d="M 29.199219 -45.414062 L 20.863281 -25.683594 L 12.472656 -45.414062 L 3.96875 -45.414062 L 16.613281 -15.703125 L 16.613281 0 L 25.058594 0 L 25.058594 -15.703125 L 37.644531 -45.414062 Z M 29.199219 -45.414062 "/></g></g></g><g fill="#f6ad55" fill-opacity="1"><g transform="translate(141.771849, 156.170607)"><g><path d="M 12.417969 -8.449219 L 12.417969 -45.355469 L 3.96875 -45.355469 L 3.96875 0 L 30.21875 0 L 30.21875 -8.449219 Z M 12.417969 -8.449219 "/></g></g></g><g fill="#f6ad55" fill-opacity="1"><g transform="translate(175.956216, 156.170607)"><g><path d="M 30.277344 -36.964844 L 30.277344 -45.414062 L 3.96875 -45.414062 L 3.96875 0 L 30.277344 0 L 30.277344 -8.449219 L 12.472656 -8.449219 L 12.472656 -18.539062 L 23.074219 -18.539062 L 23.074219 -26.988281 L 12.472656 -26.988281 L 12.472656 -36.964844 Z M 30.277344 -36.964844 "/></g></g></g></svg>