<svg xmlns="http://www.w3.org/2000/svg" xmlns:xlink="http://www.w3.org/1999/xlink" width="250" zoomAndPan="magnify" viewBox="0 0 187.5 187.499992" height="250" preserveAspectRatio="xMidYMid meet" version="1.0"><defs><clipPath id="id1"><path d="M 12.667969 9.375 L 168.667969 9.375 L 168.667969 178.125 L 12.667969 178.125 Z M 12.667969 9.375 " clip-rule="nonzero"/></clipPath><clipPath id="id2"><path d="M 29 26.957031 L 91 26.957031 L 91 158 L 29 158 Z M 29 26.957031 " clip-rule="nonzero"/></clipPath><clipPath id="id3"><path d="M 93 26.957031 L 153.660156 26.957031 L 153.660156 157.78125 L 93 157.78125 Z M 93 26.957031 " clip-rule="nonzero"/></clipPath></defs><path fill="#9fc7aa" d="M 162.785156 176.617188 L 18.550781 176.617188 C 16.148438 176.617188 14.167969 174.636719 14.167969 172.234375 L 14.167969 15.265625 C 14.167969 12.863281 16.148438 10.882812 18.550781 10.882812 L 162.726562 10.882812 C 165.125 10.882812 167.109375 12.863281 167.109375 15.265625 L 167.109375 172.171875 C 167.167969 174.636719 165.1875 176.617188 162.785156 176.617188 " fill-opacity="1" fill-rule="nonzero"/><g clip-path="url(#id1)"><path fill="#000000" d="M 162.785156 12.203125 C 164.464844 12.203125 165.847656 13.585938 165.847656 15.265625 L 165.847656 172.234375 C 165.847656 173.914062 164.464844 175.296875 162.785156 175.296875 L 18.550781 175.296875 C 16.871094 175.296875 15.488281 173.914062 15.488281 172.234375 L 15.488281 15.265625 C 15.488281 13.585938 16.871094 12.203125 18.550781 12.203125 L 162.785156 12.203125 M 162.785156 9.382812 L 18.550781 9.382812 C 15.308594 9.382812 12.667969 12.023438 12.667969 15.265625 L 12.667969 172.234375 C 12.667969 175.476562 15.308594 178.117188 18.550781 178.117188 L 162.785156 178.117188 C 166.027344 178.117188 168.667969 175.476562 168.667969 172.234375 L 168.667969 15.265625 C 168.667969 12.023438 166.027344 9.382812 162.785156 9.382812 " fill-opacity="1" fill-rule="nonzero"/></g><g clip-path="url(#id2)"><path fill="#ffffff" d="M 59.226562 122.914062 C 60.09375 122.914062 60.800781 123.625 60.800781 124.496094 C 60.800781 124.667969 60.78125 124.84375 60.722656 125.007812 C 59.003906 129.441406 61.207031 134.4375 65.652344 136.15625 C 68.691406 137.328125 72.160156 136.679688 74.558594 134.460938 C 75.210938 133.878906 76.21875 133.925781 76.800781 134.578125 C 77.378906 135.214844 77.34375 136.214844 76.707031 136.808594 C 71.925781 141.207031 64.480469 140.894531 60.082031 136.097656 C 57.042969 132.800781 56.152344 128.050781 57.773438 123.867188 C 58.019531 123.289062 58.585938 122.914062 59.226562 122.914062 Z M 79.570312 26.957031 C 75.28125 26.84375 71.082031 28.199219 67.671875 30.8125 C 72.019531 31.660156 75.941406 33.996094 78.757812 37.421875 C 79.304688 38.109375 79.1875 39.105469 78.503906 39.652344 C 77.832031 40.175781 76.867188 40.082031 76.3125 39.445312 C 70.730469 32.625 60.6875 31.640625 53.890625 37.226562 C 48.597656 41.582031 46.671875 48.828125 49.109375 55.226562 C 40.027344 56.933594 34.050781 65.679688 35.757812 74.773438 C 36.117188 76.679688 36.800781 78.503906 37.777344 80.175781 C 30.503906 83.753906 27.5 92.566406 31.070312 99.863281 C 31.394531 100.523438 31.777344 101.164062 32.195312 101.777344 C 36.417969 96.820312 42.695312 94.113281 49.191406 94.425781 C 48.84375 87.679688 54.015625 81.929688 60.757812 81.570312 C 61.777344 81.523438 62.796875 81.605469 63.808594 81.800781 C 64.652344 81.988281 65.1875 82.835938 65 83.695312 C 64.816406 84.519531 64.003906 85.054688 63.179688 84.902344 C 58.273438 83.914062 53.507812 87.085938 52.507812 91.988281 C 52.324219 92.929688 52.289062 93.878906 52.390625 94.820312 C 57.253906 95.820312 61.613281 98.515625 64.6875 102.417969 C 65.234375 103.101562 65.128906 104.101562 64.445312 104.648438 C 63.773438 105.203125 62.773438 105.097656 62.21875 104.414062 C 62.21875 104.402344 62.207031 104.390625 62.195312 104.378906 C 56.105469 96.632812 44.886719 95.285156 37.136719 101.382812 C 29.402344 107.492188 28.054688 118.722656 34.144531 126.46875 C 36.699219 129.710938 40.28125 131.964844 44.296875 132.859375 C 43.449219 141.40625 49.644531 149.023438 58.167969 149.941406 C 65.105469 158.828125 77.914062 160.382812 86.777344 153.449219 C 87.980469 152.507812 89.070312 151.429688 90.035156 150.234375 L 90.035156 126.820312 C 87.179688 118.757812 78.738281 114.136719 70.417969 116.074219 C 69.5625 116.273438 68.714844 115.738281 68.515625 114.890625 C 68.320312 114.03125 68.851562 113.183594 69.699219 112.984375 C 77.320312 111.207031 85.277344 114.066406 90.035156 120.269531 L 90.035156 66.285156 C 85.894531 58.132812 75.929688 54.890625 67.796875 59.035156 C 64.503906 60.722656 61.871094 63.449219 60.316406 66.796875 C 59.945312 67.597656 59.003906 67.933594 58.203125 67.5625 C 57.414062 67.191406 57.066406 66.25 57.4375 65.460938 C 62.042969 55.585938 73.761719 51.3125 83.632812 55.914062 C 86.066406 57.050781 88.25 58.6875 90.035156 60.699219 L 90.035156 30.535156 C 86.984375 28.316406 83.339844 27.0625 79.570312 26.957031 " fill-opacity="1" fill-rule="nonzero"/></g><g clip-path="url(#id3)"><path fill="#ffffff" d="M 105.5 75.019531 C 112.574219 74.832031 118.46875 80.429688 118.652344 87.515625 C 118.652344 87.644531 118.652344 87.769531 118.652344 87.898438 C 130.21875 88.445312 139.136719 98.257812 138.59375 109.828125 C 138.570312 110.371094 138.523438 110.90625 138.453125 111.441406 C 138.382812 112.3125 137.617188 112.960938 136.75 112.882812 C 135.878906 112.8125 135.230469 112.046875 135.300781 111.175781 C 135.308594 111.128906 135.308594 111.09375 135.320312 111.046875 C 136.539062 101.289062 129.625 92.394531 119.882812 91.175781 C 114.347656 90.476562 108.804688 92.429688 104.917969 96.433594 C 104.339844 97.097656 103.339844 97.15625 102.679688 96.574219 C 102.03125 95.992188 101.960938 94.996094 102.539062 94.332031 C 102.574219 94.296875 102.609375 94.261719 102.644531 94.230469 C 106.066406 90.710938 110.613281 88.503906 115.484375 87.992188 C 115.554688 82.648438 111.296875 78.257812 105.960938 78.1875 C 105.207031 78.175781 104.464844 78.257812 103.734375 78.410156 C 102.875 78.585938 102.042969 78.027344 101.878906 77.167969 C 101.714844 76.332031 102.238281 75.53125 103.050781 75.320312 C 103.851562 75.144531 104.675781 75.042969 105.5 75.019531 Z M 103.664062 26.957031 C 99.894531 27.074219 96.253906 28.316406 93.203125 30.535156 L 93.203125 42.464844 C 95.894531 40.953125 99.070312 40.617188 102.019531 41.546875 C 102.828125 41.847656 103.257812 42.753906 102.957031 43.578125 C 102.679688 44.34375 101.855469 44.773438 101.054688 44.566406 C 98.304688 43.707031 95.300781 44.390625 93.191406 46.355469 L 93.191406 132.3125 C 96.519531 128.675781 101.601562 127.214844 106.34375 128.539062 C 107.167969 128.804688 107.621094 129.710938 107.355469 130.535156 C 107.085938 131.300781 106.296875 131.765625 105.507812 131.582031 C 100.21875 130.128906 94.757812 133.21875 93.292969 138.515625 C 93.261719 138.628906 93.238281 138.757812 93.203125 138.875 L 93.203125 150.234375 C 100.300781 158.988281 113.132812 160.3125 121.867188 153.207031 C 123.0625 152.242188 124.128906 151.152344 125.066406 149.941406 C 131.910156 149.210938 137.46875 144.066406 138.746094 137.292969 C 128.375 139.929688 117.609375 134.761719 113.164062 125.019531 C 112.828125 124.21875 113.222656 123.289062 114.023438 122.949219 C 114.789062 122.636719 115.671875 122.960938 116.042969 123.707031 C 120.382812 133.253906 131.621094 137.46875 141.15625 133.125 C 150.691406 128.78125 154.902344 117.527344 150.566406 107.980469 C 150.007812 106.761719 149.335938 105.609375 148.535156 104.53125 C 154.695312 99.246094 155.402344 89.964844 150.125 83.800781 C 148.835938 82.289062 147.246094 81.058594 145.460938 80.175781 C 150.066406 72.160156 147.304688 61.929688 139.300781 57.316406 C 131.296875 52.707031 121.066406 55.472656 116.472656 63.484375 C 116.078125 64.261719 115.125 64.589844 114.347656 64.195312 C 113.558594 63.8125 113.246094 62.859375 113.628906 62.070312 C 113.664062 62.023438 113.6875 61.976562 113.710938 61.929688 C 117.933594 54.414062 126.507812 50.464844 134.949219 52.160156 C 136.378906 43.460938 130.496094 35.261719 121.808594 33.832031 C 120.71875 33.648438 119.628906 33.589844 118.523438 33.636719 C 114.847656 29.257812 109.371094 26.796875 103.664062 26.957031 " fill-opacity="1" fill-rule="nonzero"/></g></svg>