<svg xmlns="http://www.w3.org/2000/svg" xmlns:xlink="http://www.w3.org/1999/xlink" width="250" zoomAndPan="magnify" viewBox="0 0 187.5 187.499992" height="250" preserveAspectRatio="xMidYMid meet" version="1.0"><defs><clipPath id="id1"><path d="M 9.375 0 L 176.78125 0 L 176.78125 183.605469 L 9.375 183.605469 Z M 9.375 0 " clip-rule="nonzero"/></clipPath><clipPath id="id2"><path d="M 10 33 L 174.078125 33 L 174.078125 178.621094 L 10 178.621094 Z M 10 33 " clip-rule="nonzero"/></clipPath></defs><path fill="#e53e3e" d="M 170.464844 181.960938 L 15.6875 181.960938 C 13.109375 181.960938 10.984375 179.804688 10.984375 177.191406 L 10.984375 6.414062 C 10.984375 3.796875 13.109375 1.640625 15.6875 1.640625 L 170.402344 1.640625 C 172.980469 1.640625 175.105469 3.796875 175.105469 6.414062 L 175.105469 177.128906 C 175.167969 179.804688 173.042969 181.960938 170.464844 181.960938 " fill-opacity="1" fill-rule="nonzero"/><g clip-path="url(#id1)"><path fill="#000000" d="M 170.464844 3.078125 C 172.269531 3.078125 173.753906 4.582031 173.753906 6.414062 L 173.753906 177.191406 C 173.753906 179.023438 172.269531 180.523438 170.464844 180.523438 L 15.6875 180.523438 C 13.882812 180.523438 12.402344 179.023438 12.402344 177.191406 L 12.402344 6.414062 C 12.402344 4.582031 13.882812 3.078125 15.6875 3.078125 L 170.464844 3.078125 M 170.464844 0.0078125 L 15.6875 0.0078125 C 12.210938 0.0078125 9.375 2.882812 9.375 6.414062 L 9.375 177.191406 C 9.375 180.722656 12.210938 183.597656 15.6875 183.597656 L 170.464844 183.597656 C 173.945312 183.597656 176.78125 180.722656 176.78125 177.191406 L 176.78125 6.414062 C 176.78125 2.882812 173.945312 0.0078125 170.464844 0.0078125 " fill-opacity="1" fill-rule="nonzero"/></g><g clip-path="url(#id2)"><path fill="#ffffff" d="M 92.636719 33.542969 C 91.820312 33.515625 91.109375 34.074219 90.914062 34.867188 L 87.609375 48 C 87.164062 49.042969 87.804688 50.222656 88.917969 50.394531 L 92.398438 50.988281 L 89.703125 56.867188 C 89.273438 57.742188 89.640625 58.792969 90.503906 59.199219 C 91.375 59.613281 92.414062 59.21875 92.796875 58.328125 L 96.285156 50.726562 C 96.855469 50 96.75 48.945312 96.046875 48.34375 C 95.742188 48.074219 95.351562 47.910156 94.941406 47.902344 C 94.933594 47.910156 94.917969 47.910156 94.90625 47.910156 L 91.3125 47.296875 L 94.222656 35.730469 C 94.515625 34.648438 93.734375 33.585938 92.636719 33.550781 Z M 126.960938 48.371094 C 126.632812 48.371094 126.3125 48.460938 126.035156 48.628906 L 114.519531 55.542969 C 114.171875 55.679688 113.878906 55.933594 113.683594 56.246094 C 113.203125 56.976562 113.347656 57.949219 113.996094 58.515625 L 115.8125 61.082031 L 109.785156 63.3125 C 108.894531 63.636719 108.433594 64.628906 108.761719 65.527344 C 109.082031 66.429688 110.070312 66.886719 110.960938 66.554688 L 118.890625 63.628906 C 119.351562 63.519531 119.753906 63.222656 119.992188 62.808594 C 120.394531 62.132812 120.296875 61.261719 119.742188 60.703125 L 117.617188 57.695312 L 127.78125 51.601562 C 129.285156 50.726562 128.6875 48.40625 126.960938 48.371094 Z M 57.089844 48.378906 C 55.386719 48.460938 54.84375 50.738281 56.324219 51.601562 L 66.476562 57.695312 L 64.367188 60.683594 C 63.734375 61.304688 63.683594 62.316406 64.234375 63.007812 C 64.261719 63.035156 64.277344 63.0625 64.304688 63.089844 C 64.3125 63.097656 64.324219 63.105469 64.332031 63.117188 C 64.5625 63.367188 64.867188 63.546875 65.195312 63.628906 L 73.148438 66.5625 C 74.03125 66.898438 75.019531 66.4375 75.347656 65.539062 C 75.667969 64.636719 75.214844 63.636719 74.316406 63.3125 L 68.292969 61.089844 L 70.105469 58.523438 C 70.765625 57.957031 70.898438 56.976562 70.417969 56.246094 C 70.222656 55.933594 69.929688 55.6875 69.589844 55.554688 L 58.074219 48.628906 C 57.78125 48.449219 57.433594 48.359375 57.097656 48.378906 Z M 92.425781 67.15625 C 90.085938 67.15625 87.824219 67.707031 85.6875 68.644531 C 83.5625 69.597656 81.550781 70.9375 79.671875 72.570312 C 77.992188 74.027344 76.40625 75.710938 74.921875 77.554688 L 12.433594 77.554688 C 10.183594 77.582031 10.183594 80.984375 12.433594 81.011719 L 75.304688 81.003906 C 75.960938 81.167969 76.65625 80.914062 77.066406 80.363281 C 77.074219 80.355469 77.09375 80.347656 77.101562 80.328125 C 78.613281 78.382812 80.226562 76.636719 81.898438 75.199219 C 83.570312 73.746094 85.304688 72.59375 87.066406 71.8125 C 88.828125 71.039062 90.609375 70.613281 92.425781 70.613281 C 94.007812 70.613281 95.628906 71.019531 97.273438 71.804688 C 98.921875 72.578125 100.59375 73.730469 102.238281 75.179688 C 103.878906 76.636719 105.488281 78.394531 107.027344 80.355469 C 107.429688 80.90625 108.121094 81.167969 108.78125 81.011719 L 171.667969 81.011719 C 172.621094 81.023438 173.394531 80.246094 173.394531 79.285156 C 173.394531 78.320312 172.621094 77.546875 171.667969 77.554688 L 109.179688 77.554688 C 107.695312 75.71875 106.128906 74.035156 104.492188 72.585938 C 102.660156 70.957031 100.726562 69.617188 98.714844 68.671875 C 96.695312 67.714844 94.585938 67.167969 92.425781 67.167969 Z M 92.050781 75.980469 C 89.320312 75.980469 86.941406 77.527344 84.96875 79.664062 C 83 81.804688 81.347656 84.613281 79.957031 87.664062 C 77.179688 93.769531 75.507812 100.753906 75.535156 105.453125 C 75.554688 109.496094 76.53125 113.980469 79.128906 117.582031 C 81.730469 121.183594 86.054688 123.765625 92.050781 123.765625 C 97.851562 123.765625 102.167969 121.183594 104.820312 117.597656 C 107.464844 114.007812 108.566406 109.523438 108.566406 105.445312 C 108.566406 100.703125 106.664062 93.734375 103.804688 87.648438 C 102.375 84.605469 100.699219 81.804688 98.789062 79.679688 C 96.875 77.554688 94.640625 75.980469 92.050781 75.980469 Z M 92.050781 79.429688 C 93.199219 79.429688 94.683594 80.257812 96.261719 82.003906 C 97.828125 83.75 99.382812 86.296875 100.71875 89.132812 C 103.386719 94.796875 105.148438 101.699219 105.148438 105.445312 C 105.148438 108.886719 104.171875 112.703125 102.078125 115.527344 C 99.988281 118.363281 96.890625 120.316406 92.050781 120.316406 C 86.980469 120.316406 83.917969 118.363281 81.890625 115.546875 C 79.859375 112.730469 78.96875 108.910156 78.953125 105.4375 C 78.933594 101.648438 80.5 94.761719 83.0625 89.117188 C 84.34375 86.289062 85.882812 83.75 87.476562 82.019531 C 89.070312 80.285156 90.628906 79.429688 92.050781 79.429688 Z M 11.742188 88.503906 C 9.941406 88.53125 9.398438 90.988281 11.019531 91.78125 C 11.019531 91.78125 13.128906 92.859375 15.90625 93.941406 C 18.679688 95.011719 22.097656 96.136719 25.167969 96.136719 C 28.230469 96.136719 30.585938 94.902344 32.625 93.867188 C 34.664062 92.824219 36.378906 91.96875 38.542969 91.96875 C 40.707031 91.96875 42.421875 92.824219 44.460938 93.867188 C 46.5 94.902344 48.855469 96.136719 51.917969 96.136719 C 54.980469 96.136719 57.335938 94.902344 59.375 93.867188 C 61.414062 92.824219 63.128906 91.96875 65.292969 91.96875 C 66.378906 91.96875 67.332031 92.175781 68.28125 92.519531 C 69.242188 92.859375 70.195312 93.347656 71.210938 93.867188 C 72.234375 94.390625 73.320312 94.949219 74.539062 95.390625 C 75.4375 95.75 76.460938 95.28125 76.78125 94.355469 C 77.109375 93.4375 76.601562 92.429688 75.675781 92.132812 C 74.726562 91.789062 73.773438 91.304688 72.75 90.78125 C 71.734375 90.257812 70.648438 89.699219 69.421875 89.269531 C 68.203125 88.828125 66.824219 88.511719 65.292969 88.511719 C 62.230469 88.511719 59.875 89.738281 57.835938 90.78125 C 55.796875 91.824219 54.082031 92.679688 51.917969 92.679688 C 49.753906 92.679688 48.039062 91.824219 46 90.78125 C 43.960938 89.746094 41.605469 88.511719 38.542969 88.511719 C 35.480469 88.511719 33.113281 89.738281 31.078125 90.78125 C 29.046875 91.824219 27.332031 92.679688 25.167969 92.679688 C 22.996094 92.679688 19.730469 91.71875 17.125 90.707031 C 14.527344 89.699219 12.558594 88.703125 12.558594 88.703125 C 12.308594 88.566406 12.023438 88.496094 11.742188 88.503906 Z M 172.328125 88.511719 C 172.316406 88.511719 172.316406 88.511719 172.308594 88.511719 C 169.246094 88.511719 166.890625 89.746094 164.851562 90.78125 C 162.8125 91.824219 161.097656 92.679688 158.933594 92.679688 C 156.773438 92.679688 155.054688 91.824219 153.015625 90.78125 C 150.976562 89.746094 148.621094 88.511719 145.558594 88.511719 C 142.496094 88.511719 140.140625 89.746094 138.101562 90.78125 C 136.0625 91.824219 134.347656 92.679688 132.183594 92.679688 C 130.023438 92.679688 128.304688 91.824219 126.265625 90.78125 C 124.230469 89.746094 121.871094 88.511719 118.808594 88.511719 C 117.277344 88.511719 115.898438 88.828125 114.671875 89.269531 C 113.453125 89.699219 112.367188 90.257812 111.34375 90.78125 C 110.328125 91.304688 109.378906 91.789062 108.414062 92.132812 C 107.492188 92.429688 106.992188 93.4375 107.3125 94.363281 C 107.640625 95.28125 108.65625 95.75 109.5625 95.390625 C 110.78125 94.949219 111.867188 94.390625 112.890625 93.867188 C 113.90625 93.347656 114.859375 92.859375 115.820312 92.519531 C 116.773438 92.175781 117.722656 91.96875 118.808594 91.96875 C 120.972656 91.96875 122.6875 92.824219 124.726562 93.867188 C 126.765625 94.914062 129.125 96.136719 132.183594 96.136719 C 135.246094 96.136719 137.605469 94.914062 139.640625 93.867188 C 141.679688 92.824219 143.398438 91.96875 145.558594 91.96875 C 147.722656 91.96875 149.4375 92.824219 151.476562 93.867188 C 153.515625 94.914062 155.871094 96.136719 158.933594 96.136719 C 161.996094 96.136719 164.363281 94.914062 166.398438 93.867188 C 168.429688 92.824219 170.144531 91.96875 172.308594 91.96875 C 173.277344 92.003906 174.078125 91.222656 174.078125 90.25 C 174.089844 89.269531 173.289062 88.484375 172.328125 88.511719 Z M 92.050781 93.542969 C 90.574219 93.542969 89.320312 94.28125 88.332031 95.210938 C 87.351562 96.144531 86.570312 97.316406 85.910156 98.585938 C 84.601562 101.105469 83.800781 103.933594 83.800781 106.203125 C 83.800781 110.757812 87.523438 114.457031 92.050781 114.457031 C 96.570312 114.457031 100.300781 110.757812 100.300781 106.203125 C 100.300781 105.636719 100.253906 105.039062 100.140625 104.429688 C 100.085938 104.113281 100.023438 103.796875 99.953125 103.484375 C 99.757812 102.539062 98.839844 101.945312 97.90625 102.152344 C 96.980469 102.367188 96.402344 103.304688 96.617188 104.238281 C 96.6875 104.492188 96.714844 104.742188 96.765625 104.976562 C 96.847656 105.445312 96.875 105.878906 96.875 106.203125 C 96.875 108.859375 94.746094 111 92.042969 111 C 89.347656 111 87.210938 108.859375 87.210938 106.203125 C 87.210938 104.878906 87.878906 102.230469 88.9375 100.1875 C 89.460938 99.171875 90.085938 98.28125 90.671875 97.730469 C 91.25 97.171875 91.714844 96.992188 92.042969 96.992188 C 92.210938 96.992188 92.390625 97.027344 92.621094 97.144531 C 92.851562 97.253906 93.128906 97.441406 93.421875 97.722656 C 93.714844 98 94.019531 98.359375 94.3125 98.773438 C 94.605469 99.199219 94.890625 99.675781 95.15625 100.1875 C 96.214844 102.214844 99.234375 100.621094 98.183594 98.578125 C 97.851562 97.945312 97.496094 97.34375 97.097656 96.777344 C 96.695312 96.199219 96.25 95.679688 95.761719 95.210938 C 95.273438 94.742188 94.722656 94.335938 94.105469 94.03125 C 93.484375 93.726562 92.78125 93.535156 92.042969 93.535156 Z M 38.082031 100.0625 C 34.324219 100.0625 31.246094 103.175781 31.246094 106.976562 C 31.246094 110.765625 34.324219 113.882812 38.082031 113.882812 C 41.835938 113.882812 44.914062 110.765625 44.914062 106.976562 C 44.914062 103.175781 41.835938 100.0625 38.082031 100.0625 Z M 146.09375 100.0625 C 142.335938 100.0625 139.257812 103.175781 139.257812 106.976562 C 139.257812 110.765625 142.335938 113.882812 146.09375 113.882812 C 149.839844 113.882812 152.925781 110.765625 152.925781 106.976562 C 152.925781 103.175781 149.839844 100.0625 146.09375 100.0625 Z M 13.476562 103.519531 C 11.605469 103.519531 10.058594 105.085938 10.058594 106.976562 C 10.058594 108.859375 11.605469 110.425781 13.476562 110.425781 C 15.34375 110.425781 16.894531 108.859375 16.894531 106.976562 C 16.894531 105.085938 15.34375 103.519531 13.476562 103.519531 Z M 38.082031 103.519531 C 39.984375 103.519531 41.496094 105.039062 41.496094 106.976562 C 41.496094 108.902344 39.984375 110.425781 38.082031 110.425781 C 36.175781 110.425781 34.664062 108.902344 34.664062 106.976562 C 34.664062 105.039062 36.175781 103.519531 38.082031 103.519531 Z M 65.027344 103.519531 C 63.15625 103.519531 61.609375 105.085938 61.609375 106.976562 C 61.609375 108.859375 63.15625 110.425781 65.027344 110.425781 C 66.894531 110.425781 68.441406 108.859375 68.441406 106.976562 C 68.441406 105.085938 66.894531 103.519531 65.027344 103.519531 Z M 119.003906 103.519531 C 117.136719 103.519531 115.589844 105.085938 115.589844 106.976562 C 115.589844 108.859375 117.136719 110.425781 119.003906 110.425781 C 120.863281 110.425781 122.421875 108.859375 122.421875 106.976562 C 122.421875 105.085938 120.863281 103.519531 119.003906 103.519531 Z M 146.09375 103.519531 C 147.996094 103.519531 149.511719 105.039062 149.511719 106.976562 C 149.511719 108.902344 147.996094 110.425781 146.09375 110.425781 C 144.179688 110.425781 142.675781 108.902344 142.675781 106.976562 C 142.675781 105.039062 144.179688 103.519531 146.09375 103.519531 Z M 170.625 103.519531 C 168.757812 103.519531 167.210938 105.085938 167.210938 106.976562 C 167.210938 108.859375 168.757812 110.425781 170.625 110.425781 C 172.496094 110.425781 174.035156 108.859375 174.035156 106.976562 C 174.035156 105.085938 172.496094 103.519531 170.625 103.519531 Z M 65.0625 125.765625 C 61.304688 125.765625 58.226562 128.878906 58.226562 132.679688 C 58.226562 136.46875 61.304688 139.582031 65.0625 139.582031 C 68.816406 139.582031 71.894531 136.46875 71.894531 132.679688 C 71.894531 128.878906 68.816406 125.765625 65.0625 125.765625 Z M 119.039062 125.765625 C 115.285156 125.765625 112.207031 128.878906 112.207031 132.679688 C 112.207031 136.46875 115.285156 139.582031 119.039062 139.582031 C 122.789062 139.582031 125.867188 136.46875 125.867188 132.679688 C 125.867188 128.878906 122.789062 125.765625 119.039062 125.765625 Z M 65.0625 129.222656 C 66.964844 129.222656 68.476562 130.742188 68.476562 132.679688 C 68.476562 134.605469 66.964844 136.125 65.0625 136.125 C 63.15625 136.125 61.644531 134.605469 61.644531 132.679688 C 61.644531 130.753906 63.15625 129.222656 65.0625 129.222656 Z M 119.039062 129.222656 C 120.945312 129.222656 122.449219 130.742188 122.449219 132.679688 C 122.449219 134.605469 120.945312 136.125 119.039062 136.125 C 117.128906 136.125 115.625 134.605469 115.625 132.679688 C 115.625 130.753906 117.128906 129.222656 119.039062 129.222656 Z M 38.082031 130.429688 C 36.210938 130.429688 34.664062 131.996094 34.664062 133.886719 C 34.664062 135.777344 36.210938 137.34375 38.082031 137.34375 C 39.949219 137.34375 41.496094 135.777344 41.496094 133.886719 C 41.496094 131.996094 39.949219 130.429688 38.082031 130.429688 Z M 92.085938 130.429688 C 90.21875 130.429688 88.667969 131.996094 88.667969 133.886719 C 88.667969 135.777344 90.21875 137.34375 92.085938 137.34375 C 93.945312 137.34375 95.496094 135.777344 95.496094 133.886719 C 95.496094 131.996094 93.945312 130.429688 92.085938 130.429688 Z M 146.09375 130.429688 C 144.222656 130.429688 142.675781 131.996094 142.675781 133.886719 C 142.675781 135.777344 144.222656 137.34375 146.09375 137.34375 C 147.953125 137.34375 149.511719 135.777344 149.511719 133.886719 C 149.511719 131.996094 147.953125 130.429688 146.09375 130.429688 Z M 92.085938 147.804688 C 88.332031 147.804688 85.253906 150.917969 85.253906 154.707031 C 85.253906 158.507812 88.332031 161.613281 92.085938 161.613281 C 95.832031 161.613281 98.910156 158.507812 98.910156 154.707031 C 98.910156 150.917969 95.832031 147.804688 92.085938 147.804688 Z M 65.0625 151.25 C 63.191406 151.25 61.644531 152.828125 61.644531 154.707031 C 61.644531 156.597656 63.191406 158.164062 65.0625 158.164062 C 66.929688 158.164062 68.476562 156.597656 68.476562 154.707031 C 68.476562 152.828125 66.929688 151.25 65.0625 151.25 Z M 92.085938 151.25 C 93.992188 151.25 95.496094 152.78125 95.496094 154.707031 C 95.496094 156.632812 93.992188 158.164062 92.085938 158.164062 C 90.171875 158.164062 88.667969 156.632812 88.667969 154.707031 C 88.667969 152.78125 90.171875 151.25 92.085938 151.25 Z M 119.039062 151.25 C 117.171875 151.25 115.625 152.828125 115.625 154.707031 C 115.625 156.597656 117.171875 158.164062 119.039062 158.164062 C 120.902344 158.164062 122.449219 156.597656 122.449219 154.707031 C 122.449219 152.828125 120.902344 151.25 119.039062 151.25 Z M 92.085938 171.210938 C 90.21875 171.210938 88.667969 172.777344 88.667969 174.667969 C 88.667969 176.558594 90.21875 178.125 92.085938 178.125 C 93.945312 178.125 95.496094 176.558594 95.496094 174.667969 C 95.496094 172.785156 93.945312 171.210938 92.085938 171.210938 Z M 92.085938 171.210938 " fill-opacity="1" fill-rule="nonzero"/></g></svg>