<svg xmlns="http://www.w3.org/2000/svg" xmlns:xlink="http://www.w3.org/1999/xlink" width="300" zoomAndPan="magnify" viewBox="0 0 224.87999 225" height="300" preserveAspectRatio="xMidYMid meet" version="1.0"><defs><clipPath id="id1"><path d="M 0 0.0585938 L 224.761719 0.0585938 L 224.761719 224.9375 L 0 224.9375 Z M 0 0.0585938 " clip-rule="nonzero"/></clipPath></defs><g clip-path="url(#id1)"><path fill="#ffffff" d="M 0 0.0585938 L 224.878906 0.0585938 L 224.878906 232.4375 L 0 232.4375 Z M 0 0.0585938 " fill-opacity="1" fill-rule="nonzero"/><path fill="#ffffff" d="M 0 0.0585938 L 224.878906 0.0585938 L 224.878906 224.941406 L 0 224.941406 Z M 0 0.0585938 " fill-opacity="1" fill-rule="nonzero"/><path fill="#ffffff" d="M 0 0.0585938 L 224.878906 0.0585938 L 224.878906 224.941406 L 0 224.941406 Z M 0 0.0585938 " fill-opacity="1" fill-rule="nonzero"/><path fill="#894a35" d="M 112.441406 0.0585938 C 110.601562 0.0585938 108.761719 0.105469 106.921875 0.195312 C 105.085938 0.285156 103.25 0.421875 101.417969 0.601562 C 99.585938 0.78125 97.761719 1.007812 95.941406 1.277344 C 94.121094 1.546875 92.308594 1.863281 90.503906 2.21875 C 88.699219 2.578125 86.90625 2.984375 85.121094 3.429688 C 83.335938 3.875 81.5625 4.367188 79.800781 4.902344 C 78.039062 5.4375 76.292969 6.011719 74.558594 6.632812 C 72.828125 7.253906 71.109375 7.914062 69.410156 8.617188 C 67.710938 9.324219 66.027344 10.070312 64.367188 10.855469 C 62.703125 11.640625 61.058594 12.46875 59.4375 13.335938 C 57.8125 14.203125 56.210938 15.109375 54.632812 16.058594 C 53.054688 17.003906 51.5 17.988281 49.972656 19.007812 C 48.441406 20.03125 46.9375 21.089844 45.460938 22.1875 C 43.980469 23.285156 42.53125 24.414062 41.109375 25.582031 C 39.6875 26.75 38.292969 27.953125 36.929688 29.1875 C 35.566406 30.421875 34.234375 31.691406 32.933594 32.992188 C 31.632812 34.292969 30.363281 35.625 29.128906 36.988281 C 27.890625 38.351562 26.691406 39.746094 25.523438 41.167969 C 24.355469 42.589844 23.222656 44.042969 22.128906 45.519531 C 21.03125 46.996094 19.972656 48.5 18.949219 50.03125 C 17.925781 51.5625 16.941406 53.117188 15.996094 54.695312 C 15.050781 56.273438 14.144531 57.875 13.277344 59.496094 C 12.410156 61.117188 11.582031 62.761719 10.796875 64.425781 C 10.007812 66.089844 9.261719 67.769531 8.558594 69.472656 C 7.855469 71.171875 7.191406 72.886719 6.574219 74.621094 C 5.953125 76.351562 5.375 78.097656 4.839844 79.859375 C 4.308594 81.621094 3.816406 83.394531 3.371094 85.179688 C 2.921875 86.964844 2.519531 88.757812 2.160156 90.5625 C 1.800781 92.367188 1.488281 94.179688 1.21875 96 C 0.945312 97.820312 0.722656 99.648438 0.542969 101.480469 C 0.359375 103.308594 0.226562 105.144531 0.136719 106.984375 C 0.046875 108.820312 0 110.660156 0 112.5 C 0 114.339844 0.046875 116.179688 0.136719 118.015625 C 0.226562 119.855469 0.359375 121.691406 0.542969 123.519531 C 0.722656 125.351562 0.945312 127.179688 1.21875 129 C 1.488281 130.820312 1.800781 132.632812 2.160156 134.4375 C 2.519531 136.242188 2.921875 138.035156 3.371094 139.820312 C 3.816406 141.605469 4.308594 143.378906 4.839844 145.140625 C 5.375 146.902344 5.953125 148.648438 6.574219 150.378906 C 7.191406 152.113281 7.855469 153.828125 8.558594 155.527344 C 9.261719 157.230469 10.007812 158.910156 10.796875 160.574219 C 11.582031 162.238281 12.410156 163.882812 13.277344 165.503906 C 14.144531 167.125 15.050781 168.726562 15.996094 170.304688 C 16.941406 171.882812 17.925781 173.4375 18.949219 174.96875 C 19.972656 176.5 21.03125 178.003906 22.128906 179.480469 C 23.222656 180.957031 24.355469 182.410156 25.523438 183.832031 C 26.691406 185.253906 27.890625 186.648438 29.128906 188.011719 C 30.363281 189.375 31.632812 190.707031 32.933594 192.007812 C 34.234375 193.308594 35.566406 194.578125 36.929688 195.8125 C 38.292969 197.046875 39.6875 198.25 41.109375 199.417969 C 42.53125 200.585938 43.980469 201.714844 45.460938 202.8125 C 46.9375 203.910156 48.441406 204.96875 49.972656 205.992188 C 51.5 207.011719 53.054688 207.996094 54.632812 208.941406 C 56.210938 209.890625 57.8125 210.796875 59.4375 211.664062 C 61.058594 212.53125 62.703125 213.359375 64.367188 214.144531 C 66.027344 214.929688 67.710938 215.675781 69.410156 216.382812 C 71.109375 217.085938 72.828125 217.746094 74.558594 218.367188 C 76.292969 218.988281 78.039062 219.5625 79.800781 220.097656 C 81.5625 220.632812 83.335938 221.125 85.121094 221.570312 C 86.90625 222.015625 88.699219 222.421875 90.503906 222.78125 C 92.308594 223.136719 94.121094 223.453125 95.941406 223.722656 C 97.761719 223.992188 99.585938 224.21875 101.417969 224.398438 C 103.25 224.578125 105.085938 224.714844 106.921875 224.804688 C 108.761719 224.894531 110.601562 224.941406 112.441406 224.941406 C 114.28125 224.941406 116.121094 224.894531 117.957031 224.804688 C 119.796875 224.714844 121.628906 224.578125 123.460938 224.398438 C 125.292969 224.21875 127.117188 223.992188 128.9375 223.722656 C 130.757812 223.453125 132.570312 223.136719 134.375 222.78125 C 136.179688 222.421875 137.976562 222.015625 139.761719 221.570312 C 141.546875 221.125 143.320312 220.632812 145.078125 220.097656 C 146.839844 219.5625 148.585938 218.988281 150.320312 218.367188 C 152.050781 217.746094 153.769531 217.085938 155.46875 216.382812 C 157.167969 215.675781 158.851562 214.929688 160.515625 214.144531 C 162.179688 213.359375 163.820312 212.53125 165.445312 211.664062 C 167.066406 210.796875 168.667969 209.890625 170.246094 208.941406 C 171.824219 207.996094 173.378906 207.011719 174.910156 205.992188 C 176.4375 204.96875 177.941406 203.910156 179.421875 202.8125 C 180.898438 201.714844 182.347656 200.585938 183.769531 199.417969 C 185.195312 198.25 186.585938 197.046875 187.949219 195.8125 C 189.3125 194.578125 190.644531 193.308594 191.945312 192.007812 C 193.25 190.707031 194.515625 189.375 195.753906 188.011719 C 196.988281 186.648438 198.191406 185.253906 199.355469 183.832031 C 200.523438 182.410156 201.65625 180.957031 202.753906 179.480469 C 203.847656 178.003906 204.90625 176.5 205.929688 174.96875 C 206.953125 173.4375 207.9375 171.882812 208.882812 170.304688 C 209.828125 168.726562 210.734375 167.125 211.601562 165.503906 C 212.46875 163.882812 213.296875 162.238281 214.085938 160.574219 C 214.871094 158.910156 215.617188 157.230469 216.320312 155.527344 C 217.023438 153.828125 217.6875 152.113281 218.308594 150.378906 C 218.925781 148.648438 219.503906 146.902344 220.039062 145.140625 C 220.574219 143.378906 221.0625 141.605469 221.511719 139.820312 C 221.957031 138.035156 222.359375 136.242188 222.71875 134.4375 C 223.078125 132.632812 223.394531 130.820312 223.664062 129 C 223.933594 127.179688 224.15625 125.351562 224.339844 123.519531 C 224.519531 121.691406 224.652344 119.855469 224.746094 118.015625 C 224.835938 116.179688 224.878906 114.339844 224.878906 112.5 C 224.878906 110.660156 224.832031 108.820312 224.738281 106.984375 C 224.644531 105.148438 224.507812 103.3125 224.328125 101.484375 C 224.144531 99.652344 223.917969 97.828125 223.644531 96.007812 C 223.375 94.1875 223.058594 92.378906 222.699219 90.574219 C 222.335938 88.769531 221.933594 86.976562 221.484375 85.191406 C 221.035156 83.40625 220.542969 81.636719 220.007812 79.875 C 219.472656 78.113281 218.894531 76.371094 218.273438 74.636719 C 217.652344 72.90625 216.992188 71.191406 216.285156 69.492188 C 215.582031 67.792969 214.835938 66.109375 214.046875 64.449219 C 213.261719 62.785156 212.433594 61.144531 211.566406 59.523438 C 210.695312 57.898438 209.789062 56.300781 208.84375 54.722656 C 207.898438 53.144531 206.914062 51.589844 205.890625 50.0625 C 204.867188 48.535156 203.808594 47.03125 202.710938 45.550781 C 201.617188 44.074219 200.484375 42.625 199.316406 41.203125 C 198.148438 39.78125 196.949219 38.390625 195.714844 37.027344 C 194.476562 35.664062 193.210938 34.332031 191.910156 33.03125 C 190.609375 31.730469 189.277344 30.460938 187.914062 29.226562 C 186.550781 27.992188 185.15625 26.789062 183.734375 25.621094 C 182.3125 24.457031 180.863281 23.324219 179.386719 22.226562 C 177.910156 21.132812 176.40625 20.070312 174.878906 19.050781 C 173.347656 18.027344 171.792969 17.042969 170.21875 16.097656 C 168.640625 15.148438 167.039062 14.242188 165.417969 13.375 C 163.796875 12.507812 162.152344 11.679688 160.492188 10.890625 C 158.828125 10.105469 157.148438 9.359375 155.449219 8.652344 C 153.75 7.949219 152.035156 7.285156 150.300781 6.664062 C 148.570312 6.042969 146.824219 5.464844 145.066406 4.929688 C 143.304688 4.394531 141.53125 3.902344 139.75 3.457031 C 137.964844 3.007812 136.171875 2.601562 134.367188 2.242188 C 132.5625 1.882812 130.75 1.566406 128.933594 1.292969 C 127.113281 1.023438 125.289062 0.796875 123.457031 0.613281 C 121.625 0.429688 119.792969 0.292969 117.957031 0.203125 C 116.117188 0.109375 114.28125 0.0625 112.441406 0.0585938 Z M 217.535156 108.871094 L 105.1875 108.871094 L 105.1875 7.59375 C 107.585938 7.425781 110 7.3125 112.441406 7.3125 C 114.121094 7.316406 115.804688 7.359375 117.484375 7.441406 C 119.167969 7.523438 120.84375 7.648438 122.519531 7.8125 C 124.195312 7.972656 125.863281 8.175781 127.53125 8.421875 C 129.195312 8.664062 130.851562 8.945312 132.503906 9.269531 C 134.15625 9.59375 135.800781 9.953125 137.433594 10.355469 C 139.066406 10.757812 140.691406 11.199219 142.304688 11.675781 C 143.917969 12.15625 145.519531 12.675781 147.105469 13.230469 C 148.695312 13.789062 150.269531 14.382812 151.828125 15.011719 C 153.390625 15.644531 154.933594 16.3125 156.460938 17.019531 C 157.988281 17.726562 159.5 18.464844 160.992188 19.246094 C 162.484375 20.023438 163.957031 20.835938 165.410156 21.683594 C 166.863281 22.535156 168.292969 23.417969 169.703125 24.335938 C 171.117188 25.25 172.503906 26.203125 173.871094 27.1875 C 175.234375 28.171875 176.574219 29.1875 177.890625 30.234375 C 179.207031 31.28125 180.5 32.363281 181.765625 33.472656 C 183.027344 34.582031 184.265625 35.722656 185.476562 36.890625 C 186.6875 38.0625 187.867188 39.257812 189.019531 40.484375 C 190.171875 41.710938 191.296875 42.964844 192.390625 44.242188 C 193.480469 45.523438 194.542969 46.828125 195.574219 48.160156 C 196.601562 49.492188 197.601562 50.84375 198.566406 52.222656 C 199.53125 53.601562 200.460938 55.003906 201.359375 56.425781 C 202.257812 57.851562 203.121094 59.292969 203.949219 60.757812 C 204.777344 62.222656 205.570312 63.707031 206.328125 65.210938 C 207.085938 66.710938 207.808594 68.234375 208.492188 69.769531 C 209.179688 71.308594 209.824219 72.859375 210.433594 74.429688 C 211.046875 75.996094 211.617188 77.578125 212.152344 79.175781 C 212.6875 80.769531 213.183594 82.378906 213.640625 83.996094 C 214.097656 85.617188 214.515625 87.246094 214.894531 88.886719 C 215.273438 90.527344 215.613281 92.175781 215.914062 93.828125 C 216.214844 95.484375 216.472656 97.148438 216.695312 98.816406 C 216.914062 100.484375 217.09375 102.15625 217.234375 103.835938 C 217.375 105.511719 217.476562 107.191406 217.535156 108.871094 Z M 7.253906 112.5 C 7.257812 110.929688 7.292969 109.363281 7.367188 107.796875 C 7.4375 106.226562 7.546875 104.664062 7.6875 103.101562 C 7.828125 101.539062 8.007812 99.980469 8.21875 98.425781 C 8.429688 96.871094 8.675781 95.320312 8.957031 93.777344 C 9.238281 92.234375 9.554688 90.695312 9.902344 89.167969 C 10.253906 87.636719 10.636719 86.117188 11.054688 84.601562 C 11.472656 83.089844 11.925781 81.589844 12.410156 80.097656 C 12.894531 78.605469 13.410156 77.121094 13.960938 75.652344 C 14.515625 74.183594 15.097656 72.726562 15.714844 71.285156 C 16.328125 69.84375 16.976562 68.414062 17.65625 67 C 18.335938 65.585938 19.046875 64.1875 19.792969 62.804688 C 20.535156 61.421875 21.304688 60.058594 22.109375 58.710938 C 22.914062 57.363281 23.746094 56.03125 24.609375 54.722656 C 25.472656 53.410156 26.363281 52.121094 27.285156 50.851562 C 28.203125 49.578125 29.152344 48.328125 30.128906 47.101562 C 31.105469 45.875 32.109375 44.667969 33.140625 43.484375 C 34.171875 42.300781 35.226562 41.140625 36.308594 40.003906 C 37.390625 38.867188 38.496094 37.757812 39.628906 36.667969 C 40.761719 35.582031 41.917969 34.523438 43.09375 33.488281 C 44.273438 32.453125 45.476562 31.441406 46.699219 30.460938 C 47.925781 29.480469 49.171875 28.527344 50.4375 27.601562 C 51.703125 26.675781 52.992188 25.777344 54.296875 24.910156 C 55.605469 24.042969 56.929688 23.203125 58.273438 22.394531 C 59.621094 21.585938 60.980469 20.804688 62.359375 20.058594 C 63.738281 19.308594 65.136719 18.59375 66.546875 17.90625 C 67.957031 17.222656 69.382812 16.566406 70.824219 15.945312 C 72.265625 15.324219 73.71875 14.734375 75.183594 14.175781 C 76.652344 13.617188 78.128906 13.09375 79.621094 12.605469 C 81.113281 12.113281 82.613281 11.65625 84.121094 11.230469 C 85.632812 10.808594 87.152344 10.417969 88.679688 10.0625 C 90.210938 9.703125 91.746094 9.382812 93.285156 9.097656 C 94.828125 8.808594 96.378906 8.554688 97.929688 8.335938 L 97.929688 216.664062 C 96.378906 216.445312 94.828125 216.191406 93.285156 215.90625 C 91.746094 215.617188 90.210938 215.296875 88.679688 214.9375 C 87.152344 214.582031 85.632812 214.191406 84.121094 213.769531 C 82.613281 213.34375 81.113281 212.886719 79.621094 212.394531 C 78.128906 211.90625 76.652344 211.382812 75.183594 210.824219 C 73.71875 210.265625 72.265625 209.675781 70.824219 209.054688 C 69.382812 208.433594 67.957031 207.777344 66.546875 207.09375 C 65.136719 206.40625 63.738281 205.691406 62.359375 204.941406 C 60.980469 204.195312 59.621094 203.414062 58.273438 202.605469 C 56.929688 201.796875 55.605469 200.957031 54.296875 200.089844 C 52.992188 199.222656 51.703125 198.324219 50.4375 197.398438 C 49.171875 196.472656 47.925781 195.519531 46.699219 194.539062 C 45.476562 193.558594 44.273438 192.546875 43.09375 191.511719 C 41.917969 190.476562 40.761719 189.417969 39.628906 188.332031 C 38.496094 187.242188 37.390625 186.132812 36.308594 184.996094 C 35.226562 183.859375 34.171875 182.699219 33.140625 181.515625 C 32.109375 180.332031 31.105469 179.125 30.128906 177.898438 C 29.152344 176.671875 28.203125 175.421875 27.285156 174.148438 C 26.363281 172.878906 25.472656 171.589844 24.609375 170.277344 C 23.746094 168.96875 22.914062 167.636719 22.109375 166.289062 C 21.304688 164.941406 20.535156 163.578125 19.792969 162.195312 C 19.046875 160.8125 18.335938 159.414062 17.65625 158 C 16.976562 156.585938 16.328125 155.15625 15.714844 153.714844 C 15.097656 152.273438 14.515625 150.816406 13.960938 149.347656 C 13.410156 147.878906 12.894531 146.394531 12.410156 144.902344 C 11.925781 143.410156 11.472656 141.910156 11.054688 140.398438 C 10.636719 138.882812 10.253906 137.363281 9.902344 135.832031 C 9.554688 134.304688 9.238281 132.765625 8.957031 131.222656 C 8.675781 129.679688 8.429688 128.128906 8.21875 126.574219 C 8.007812 125.019531 7.828125 123.460938 7.6875 121.898438 C 7.546875 120.335938 7.4375 118.773438 7.367188 117.203125 C 7.292969 115.636719 7.257812 114.070312 7.253906 112.5 Z M 112.441406 217.6875 C 110 217.6875 107.585938 217.574219 105.1875 217.40625 L 105.1875 116.128906 L 217.535156 116.128906 C 217.476562 117.808594 217.375 119.488281 217.234375 121.164062 C 217.09375 122.84375 216.914062 124.515625 216.695312 126.183594 C 216.472656 127.851562 216.214844 129.515625 215.914062 131.171875 C 215.613281 132.824219 215.273438 134.472656 214.894531 136.113281 C 214.515625 137.753906 214.097656 139.382812 213.640625 141.003906 C 213.183594 142.621094 212.6875 144.230469 212.152344 145.824219 C 211.617188 147.421875 211.046875 149.003906 210.433594 150.570312 C 209.824219 152.140625 209.179688 153.691406 208.492188 155.230469 C 207.808594 156.765625 207.085938 158.289062 206.328125 159.789062 C 205.570312 161.292969 204.777344 162.777344 203.949219 164.242188 C 203.121094 165.707031 202.257812 167.148438 201.359375 168.574219 C 200.460938 169.996094 199.53125 171.398438 198.566406 172.777344 C 197.601562 174.15625 196.601562 175.507812 195.574219 176.839844 C 194.542969 178.171875 193.480469 179.476562 192.390625 180.757812 C 191.296875 182.035156 190.171875 183.289062 189.019531 184.515625 C 187.867188 185.742188 186.6875 186.9375 185.476562 188.109375 C 184.265625 189.277344 183.027344 190.417969 181.765625 191.527344 C 180.5 192.636719 179.207031 193.71875 177.890625 194.765625 C 176.574219 195.8125 175.234375 196.828125 173.871094 197.8125 C 172.503906 198.796875 171.117188 199.75 169.703125 200.664062 C 168.292969 201.582031 166.863281 202.464844 165.410156 203.316406 C 163.957031 204.164062 162.484375 204.976562 160.992188 205.753906 C 159.5 206.535156 157.988281 207.273438 156.460938 207.980469 C 154.933594 208.6875 153.390625 209.355469 151.828125 209.988281 C 150.269531 210.617188 148.695312 211.210938 147.105469 211.769531 C 145.519531 212.324219 143.917969 212.84375 142.304688 213.324219 C 140.691406 213.800781 139.066406 214.242188 137.433594 214.644531 C 135.800781 215.046875 134.15625 215.40625 132.503906 215.730469 C 130.851562 216.054688 129.195312 216.335938 127.53125 216.578125 C 125.863281 216.824219 124.195312 217.027344 122.519531 217.191406 C 120.84375 217.351562 119.167969 217.476562 117.484375 217.558594 C 115.804688 217.640625 114.121094 217.683594 112.441406 217.6875 Z M 112.441406 217.6875 " fill-opacity="1" fill-rule="nonzero"/></g><path fill="#894a35" d="M 87.050781 97.992188 C 87.050781 97.019531 86.953125 96.058594 86.757812 95.105469 C 86.5625 94.152344 86.277344 93.230469 85.898438 92.335938 C 85.515625 91.441406 85.054688 90.59375 84.503906 89.792969 C 83.953125 88.992188 83.332031 88.25 82.632812 87.574219 C 81.933594 86.898438 81.175781 86.300781 80.359375 85.773438 C 79.542969 85.25 78.679688 84.8125 77.773438 84.460938 C 76.867188 84.109375 75.9375 83.851562 74.976562 83.6875 C 74.019531 83.523438 73.054688 83.453125 72.085938 83.484375 C 71.765625 82.234375 71.289062 81.050781 70.65625 79.925781 C 70.019531 78.804688 69.25 77.789062 68.339844 76.871094 C 67.433594 75.957031 66.421875 75.175781 65.308594 74.53125 C 64.191406 73.886719 63.011719 73.402344 61.765625 73.070312 C 60.519531 72.742188 59.25 72.582031 57.960938 72.59375 C 56.671875 72.605469 55.40625 72.78125 54.167969 73.132812 C 52.925781 73.480469 51.753906 73.984375 50.648438 74.648438 C 49.542969 75.308594 48.542969 76.105469 47.648438 77.035156 C 46.582031 76.621094 45.476562 76.375 44.332031 76.300781 C 43.191406 76.226562 42.0625 76.324219 40.953125 76.597656 C 39.839844 76.871094 38.792969 77.304688 37.8125 77.898438 C 36.835938 78.488281 35.96875 79.21875 35.210938 80.078125 C 33.914062 79.84375 32.609375 79.789062 31.296875 79.910156 C 29.984375 80.03125 28.710938 80.328125 27.480469 80.796875 C 26.25 81.265625 25.101562 81.890625 24.039062 82.671875 C 22.980469 83.453125 22.042969 84.363281 21.226562 85.398438 C 20.414062 86.4375 19.753906 87.5625 19.246094 88.78125 C 18.742188 89.996094 18.40625 91.257812 18.242188 92.566406 C 18.082031 93.875 18.097656 95.179688 18.289062 96.484375 C 18.484375 97.789062 18.847656 99.042969 19.382812 100.246094 C 18.554688 101.820312 18.136719 103.492188 18.136719 105.269531 C 18.136719 105.984375 18.203125 106.691406 18.34375 107.390625 C 18.484375 108.09375 18.6875 108.773438 18.960938 109.429688 C 19.234375 110.089844 19.570312 110.71875 19.964844 111.3125 C 20.363281 111.90625 20.8125 112.453125 21.316406 112.960938 C 21.820312 113.464844 22.367188 113.914062 22.960938 114.3125 C 23.554688 114.710938 24.179688 115.046875 24.839844 115.320312 C 25.5 115.59375 26.179688 115.800781 26.878906 115.941406 C 27.578125 116.082031 28.285156 116.152344 29 116.152344 L 38.578125 132.914062 C 39.457031 134.457031 39.898438 136.113281 39.898438 137.890625 C 39.898438 138.84375 39.992188 139.785156 40.175781 140.71875 C 40.363281 141.65625 40.636719 142.5625 41.003906 143.441406 C 41.367188 144.320312 41.8125 145.15625 42.34375 145.949219 C 42.871094 146.742188 43.472656 147.476562 44.148438 148.148438 C 44.820312 148.824219 45.554688 149.421875 46.347656 149.953125 C 47.136719 150.480469 47.972656 150.929688 48.855469 151.292969 C 49.734375 151.660156 50.640625 151.933594 51.574219 152.121094 C 52.511719 152.304688 53.453125 152.398438 54.40625 152.398438 C 55.359375 152.398438 56.300781 152.304688 57.238281 152.121094 C 58.171875 151.933594 59.078125 151.660156 59.957031 151.292969 C 60.839844 150.929688 61.675781 150.480469 62.46875 149.953125 C 63.257812 149.421875 63.992188 148.824219 64.664062 148.148438 C 65.339844 147.476562 65.941406 146.742188 66.46875 145.949219 C 67 145.15625 67.445312 144.320312 67.808594 143.441406 C 68.175781 142.5625 68.449219 141.65625 68.636719 140.71875 C 68.820312 139.785156 68.914062 138.84375 68.914062 137.890625 C 68.914062 135.808594 69.199219 133.769531 69.769531 131.769531 L 75.359375 112.214844 C 76.175781 112.050781 76.976562 111.820312 77.753906 111.523438 C 78.53125 111.222656 79.277344 110.859375 79.992188 110.433594 C 80.707031 110.003906 81.378906 109.519531 82.007812 108.976562 C 82.640625 108.429688 83.222656 107.835938 83.75 107.195312 C 84.277344 106.550781 84.75 105.867188 85.160156 105.140625 C 85.570312 104.417969 85.917969 103.664062 86.199219 102.878906 C 86.480469 102.09375 86.691406 101.292969 86.835938 100.472656 C 86.976562 99.652344 87.050781 98.824219 87.050781 97.992188 Z M 62.796875 129.777344 C 62.039062 132.425781 61.660156 135.132812 61.660156 137.890625 C 61.660156 138.367188 61.613281 138.835938 61.519531 139.304688 C 61.429688 139.773438 61.289062 140.226562 61.109375 140.664062 C 60.925781 141.105469 60.703125 141.523438 60.4375 141.917969 C 60.171875 142.316406 59.871094 142.683594 59.535156 143.019531 C 59.199219 143.355469 58.832031 143.65625 58.4375 143.921875 C 58.039062 144.1875 57.621094 144.410156 57.183594 144.589844 C 56.742188 144.773438 56.289062 144.910156 55.820312 145.003906 C 55.355469 145.097656 54.882812 145.144531 54.40625 145.144531 C 53.929688 145.144531 53.457031 145.097656 52.992188 145.003906 C 52.523438 144.910156 52.070312 144.773438 51.628906 144.589844 C 51.191406 144.410156 50.773438 144.1875 50.375 143.921875 C 49.980469 143.65625 49.613281 143.355469 49.277344 143.019531 C 48.941406 142.683594 48.640625 142.316406 48.375 141.917969 C 48.109375 141.523438 47.886719 141.105469 47.703125 140.664062 C 47.523438 140.226562 47.382812 139.773438 47.292969 139.304688 C 47.199219 138.835938 47.152344 138.367188 47.152344 137.890625 C 47.152344 134.828125 46.390625 131.972656 44.875 129.316406 L 35.910156 113.648438 C 37.070312 112.6875 37.992188 111.535156 38.675781 110.191406 L 51.605469 125.703125 C 51.953125 126.117188 52.371094 126.441406 52.859375 126.667969 C 53.351562 126.898438 53.867188 127.011719 54.40625 127.007812 C 54.546875 127.007812 54.683594 127 54.824219 126.984375 C 55.433594 126.914062 55.988281 126.703125 56.488281 126.351562 C 56.992188 126 57.378906 125.550781 57.652344 125.003906 L 64.992188 110.324219 C 65.925781 110.902344 66.914062 111.367188 67.957031 111.71875 Z M 47.015625 108.851562 C 47.921875 108.867188 48.824219 108.800781 49.71875 108.644531 C 50.515625 109.582031 51.445312 110.363281 52.503906 110.984375 C 53.566406 111.609375 54.699219 112.035156 55.90625 112.273438 L 53.640625 116.804688 Z M 72.542969 105.246094 C 71.492188 105.242188 70.492188 105.019531 69.542969 104.574219 C 68.589844 104.132812 67.777344 103.507812 67.101562 102.707031 C 66.910156 102.488281 66.695312 102.292969 66.457031 102.125 C 66.21875 101.957031 65.960938 101.820312 65.691406 101.710938 C 65.417969 101.605469 65.140625 101.53125 64.851562 101.492188 C 64.5625 101.453125 64.269531 101.449219 63.980469 101.480469 C 63.691406 101.511719 63.410156 101.578125 63.132812 101.675781 C 62.859375 101.777344 62.601562 101.90625 62.359375 102.066406 C 62.113281 102.230469 61.894531 102.417969 61.695312 102.632812 C 61.5 102.847656 61.328125 103.082031 61.1875 103.339844 C 60.832031 103.910156 60.351562 104.351562 59.75 104.664062 C 59.152344 104.976562 58.515625 105.113281 57.839844 105.078125 C 57.164062 105.042969 56.546875 104.839844 55.980469 104.46875 C 55.417969 104.097656 54.988281 103.605469 54.6875 103 C 54.503906 102.558594 54.242188 102.164062 53.898438 101.824219 C 53.558594 101.488281 53.167969 101.226562 52.722656 101.042969 C 52.277344 100.859375 51.8125 100.769531 51.332031 100.769531 C 50.851562 100.769531 50.390625 100.863281 49.945312 101.050781 C 49.3125 101.308594 48.65625 101.472656 47.972656 101.546875 C 47.292969 101.621094 46.617188 101.597656 45.941406 101.476562 C 45.269531 101.359375 44.625 101.148438 44.011719 100.847656 C 43.394531 100.546875 42.835938 100.167969 42.328125 99.707031 C 41.996094 99.40625 41.621094 99.175781 41.207031 99.015625 C 40.789062 98.851562 40.355469 98.769531 39.910156 98.769531 C 39.460938 98.765625 39.03125 98.84375 38.609375 99.003906 C 38.191406 99.160156 37.816406 99.386719 37.480469 99.683594 C 36.761719 100.34375 35.941406 100.835938 35.023438 101.164062 C 34.632812 101.335938 34.277344 101.5625 33.957031 101.847656 C 33.636719 102.128906 33.371094 102.457031 33.15625 102.824219 C 32.941406 103.195312 32.792969 103.589844 32.703125 104.007812 C 32.617188 104.425781 32.597656 104.847656 32.644531 105.269531 C 32.625 105.953125 32.429688 106.574219 32.050781 107.140625 L 28.984375 108.890625 C 28.507812 108.886719 28.046875 108.792969 27.605469 108.605469 C 27.164062 108.417969 26.777344 108.15625 26.441406 107.816406 C 26.105469 107.476562 25.84375 107.085938 25.664062 106.644531 C 25.480469 106.203125 25.390625 105.742188 25.390625 105.265625 C 25.398438 104.34375 25.710938 103.542969 26.332031 102.867188 C 26.601562 102.566406 26.8125 102.230469 26.972656 101.855469 C 27.128906 101.484375 27.21875 101.097656 27.246094 100.695312 C 27.273438 100.292969 27.234375 99.894531 27.128906 99.507812 C 27.023438 99.117188 26.859375 98.753906 26.632812 98.417969 C 26.195312 97.773438 25.871094 97.074219 25.660156 96.324219 C 25.449219 95.570312 25.363281 94.804688 25.398438 94.027344 C 25.433594 93.246094 25.589844 92.492188 25.871094 91.765625 C 26.148438 91.035156 26.535156 90.371094 27.03125 89.765625 C 27.523438 89.160156 28.101562 88.652344 28.757812 88.234375 C 29.417969 87.816406 30.125 87.511719 30.882812 87.320312 C 31.640625 87.132812 32.40625 87.066406 33.183594 87.125 C 33.964844 87.183594 34.710938 87.363281 35.433594 87.660156 C 35.878906 87.847656 36.339844 87.941406 36.820312 87.941406 C 37.300781 87.941406 37.765625 87.851562 38.210938 87.667969 C 38.652344 87.484375 39.046875 87.222656 39.386719 86.886719 C 39.730469 86.546875 39.992188 86.152344 40.175781 85.710938 C 40.300781 85.445312 40.449219 85.203125 40.628906 84.972656 C 40.808594 84.746094 41.015625 84.542969 41.242188 84.363281 C 41.46875 84.179688 41.714844 84.03125 41.976562 83.90625 C 42.238281 83.785156 42.511719 83.691406 42.796875 83.632812 C 43.082031 83.574219 43.367188 83.550781 43.660156 83.558594 C 43.949219 83.566406 44.234375 83.605469 44.515625 83.683594 C 44.796875 83.757812 45.0625 83.863281 45.320312 84 C 45.574219 84.136719 45.8125 84.300781 46.027344 84.496094 C 46.226562 84.6875 46.449219 84.855469 46.6875 84.996094 C 46.925781 85.140625 47.179688 85.253906 47.445312 85.335938 C 47.707031 85.421875 47.980469 85.476562 48.257812 85.496094 C 48.535156 85.519531 48.8125 85.507812 49.085938 85.46875 C 49.359375 85.425781 49.628906 85.351562 49.886719 85.25 C 50.144531 85.148438 50.386719 85.015625 50.617188 84.855469 C 50.84375 84.699219 51.050781 84.515625 51.238281 84.308594 C 51.425781 84.101562 51.585938 83.875 51.71875 83.632812 C 52.101562 82.929688 52.585938 82.304688 53.171875 81.765625 C 53.761719 81.222656 54.421875 80.789062 55.15625 80.46875 C 55.886719 80.144531 56.652344 79.949219 57.449219 79.878906 C 58.246094 79.8125 59.03125 79.875 59.808594 80.066406 C 60.585938 80.261719 61.308594 80.574219 61.980469 81.007812 C 62.652344 81.441406 63.238281 81.972656 63.734375 82.601562 C 64.230469 83.226562 64.609375 83.917969 64.875 84.671875 C 65.144531 85.429688 65.28125 86.207031 65.289062 87.003906 C 65.289062 87.097656 65.230469 87.484375 65.226562 87.574219 C 65.207031 87.875 65.226562 88.171875 65.28125 88.46875 C 65.339844 88.761719 65.429688 89.046875 65.558594 89.320312 C 65.683594 89.59375 65.839844 89.84375 66.03125 90.078125 C 66.21875 90.3125 66.433594 90.519531 66.675781 90.699219 C 66.917969 90.878906 67.175781 91.023438 67.453125 91.140625 C 67.730469 91.257812 68.019531 91.335938 68.316406 91.378906 C 68.613281 91.421875 68.910156 91.429688 69.210938 91.402344 C 69.507812 91.371094 69.800781 91.304688 70.082031 91.203125 C 70.875 90.902344 71.695312 90.746094 72.542969 90.738281 C 73.019531 90.738281 73.488281 90.785156 73.957031 90.875 C 74.425781 90.96875 74.878906 91.105469 75.316406 91.289062 C 75.757812 91.472656 76.175781 91.695312 76.570312 91.960938 C 76.96875 92.222656 77.335938 92.523438 77.671875 92.863281 C 78.007812 93.199219 78.308594 93.566406 78.574219 93.960938 C 78.839844 94.359375 79.0625 94.777344 79.242188 95.214844 C 79.425781 95.65625 79.5625 96.109375 79.65625 96.578125 C 79.75 97.042969 79.796875 97.515625 79.796875 97.992188 C 79.796875 98.46875 79.75 98.941406 79.65625 99.40625 C 79.5625 99.875 79.425781 100.328125 79.242188 100.769531 C 79.0625 101.207031 78.839844 101.625 78.574219 102.023438 C 78.308594 102.417969 78.007812 102.785156 77.671875 103.121094 C 77.335938 103.457031 76.96875 103.757812 76.570312 104.023438 C 76.175781 104.289062 75.757812 104.511719 75.316406 104.695312 C 74.878906 104.875 74.425781 105.011719 73.957031 105.105469 C 73.488281 105.199219 73.019531 105.246094 72.542969 105.246094 Z M 72.542969 105.246094 " fill-opacity="1" fill-rule="nonzero"/><path fill="#894a35" d="M 163.21875 123.382812 C 161.292969 123.402344 159.40625 123.683594 157.558594 124.226562 C 155.710938 124.765625 153.96875 125.546875 152.339844 126.570312 C 150.707031 125.542969 148.96875 124.757812 147.121094 124.214844 C 145.269531 123.671875 143.382812 123.394531 141.457031 123.382812 C 127.457031 123.382812 116.066406 138.027344 116.066406 156.023438 C 115.992188 157.484375 116.019531 158.945312 116.15625 160.398438 C 116.289062 161.855469 116.527344 163.296875 116.871094 164.71875 C 117.210938 166.136719 117.652344 167.527344 118.195312 168.886719 C 118.738281 170.246094 119.378906 171.554688 120.109375 172.820312 C 120.84375 174.085938 121.660156 175.292969 122.570312 176.441406 C 123.476562 177.589844 124.460938 178.664062 125.523438 179.671875 C 126.582031 180.675781 127.710938 181.597656 128.90625 182.441406 C 130.105469 183.285156 131.351562 184.035156 132.65625 184.699219 C 132.882812 184.804688 133.113281 184.882812 133.355469 184.941406 C 133.59375 185 133.835938 185.035156 134.085938 185.042969 C 134.332031 185.050781 134.578125 185.03125 134.820312 184.992188 C 135.066406 184.949219 135.300781 184.882812 135.53125 184.792969 C 135.761719 184.703125 135.980469 184.589844 136.1875 184.453125 C 136.394531 184.316406 136.585938 184.164062 136.761719 183.988281 C 136.9375 183.816406 137.09375 183.625 137.230469 183.417969 C 137.367188 183.210938 137.480469 182.992188 137.570312 182.765625 L 141.457031 173.042969 L 145.339844 182.765625 C 145.433594 182.992188 145.546875 183.210938 145.683594 183.417969 C 145.820312 183.625 145.976562 183.816406 146.152344 183.988281 C 146.328125 184.164062 146.519531 184.316406 146.726562 184.453125 C 146.933594 184.589844 147.152344 184.703125 147.382812 184.792969 C 147.613281 184.882812 147.847656 184.949219 148.09375 184.992188 C 148.335938 185.03125 148.582031 185.050781 148.828125 185.042969 C 149.074219 185.035156 149.320312 185 149.558594 184.941406 C 149.800781 184.882812 150.03125 184.804688 150.257812 184.699219 C 152.933594 183.425781 155.347656 181.761719 157.492188 179.714844 C 159.632812 177.664062 161.402344 175.328125 162.796875 172.710938 L 167.148438 182.867188 C 167.242188 183.089844 167.359375 183.300781 167.5 183.5 C 167.636719 183.703125 167.796875 183.886719 167.972656 184.054688 C 168.148438 184.222656 168.335938 184.371094 168.542969 184.503906 C 168.75 184.632812 168.964844 184.742188 169.191406 184.828125 C 169.421875 184.914062 169.65625 184.976562 169.894531 185.015625 C 170.136719 185.054688 170.378906 185.070312 170.621094 185.0625 C 170.863281 185.050781 171.105469 185.019531 171.339844 184.960938 C 171.578125 184.902344 171.804688 184.824219 172.027344 184.71875 C 173.332031 184.058594 174.582031 183.304688 175.777344 182.460938 C 176.972656 181.617188 178.101562 180.695312 179.164062 179.6875 C 180.226562 178.679688 181.210938 177.605469 182.117188 176.457031 C 183.023438 175.308594 183.84375 174.101562 184.574219 172.832031 C 185.308594 171.566406 185.945312 170.253906 186.488281 168.894531 C 187.03125 167.535156 187.472656 166.144531 187.8125 164.722656 C 188.152344 163.300781 188.390625 161.859375 188.523438 160.402344 C 188.660156 158.945312 188.6875 157.484375 188.609375 156.023438 C 188.609375 138.027344 177.21875 123.382812 163.21875 123.382812 Z M 132.390625 176.15625 C 130.882812 174.964844 129.535156 173.613281 128.351562 172.097656 C 127.171875 170.582031 126.183594 168.949219 125.394531 167.199219 C 124.605469 165.445312 124.035156 163.625 123.6875 161.738281 C 123.335938 159.847656 123.214844 157.945312 123.320312 156.023438 C 123.320312 143.765625 129.5625 133.507812 137.828125 131.148438 L 137.828125 137.890625 L 134.203125 137.890625 L 134.203125 145.144531 L 137.828125 145.144531 L 137.828125 148.769531 L 134.203125 148.769531 L 134.203125 156.023438 L 137.828125 156.023438 L 137.828125 162.578125 Z M 150.503906 176.15625 L 145.082031 162.578125 L 145.082031 156.023438 L 148.710938 156.023438 L 148.710938 148.769531 L 145.082031 148.769531 L 145.082031 145.144531 L 148.710938 145.144531 L 148.710938 137.890625 L 145.082031 137.890625 L 145.082031 131.148438 C 153.351562 133.507812 159.59375 143.765625 159.59375 156.023438 C 159.699219 157.945312 159.578125 159.847656 159.226562 161.738281 C 158.875 163.625 158.308594 165.445312 157.519531 167.199219 C 156.726562 168.949219 155.742188 170.582031 154.558594 172.097656 C 153.378906 173.613281 152.03125 174.964844 150.523438 176.15625 Z M 172.183594 176.214844 L 166.25 162.386719 C 166.628906 160.28125 166.828125 158.164062 166.847656 156.023438 C 166.886719 153.820312 166.730469 151.628906 166.378906 149.453125 C 166.027344 147.273438 165.484375 145.144531 164.753906 143.066406 C 164.023438 140.984375 163.113281 138.984375 162.027344 137.066406 C 160.941406 135.148438 159.691406 133.339844 158.28125 131.644531 C 159.863281 130.988281 161.507812 130.652344 163.21875 130.636719 C 173.21875 130.636719 181.355469 142.023438 181.355469 156.023438 C 181.460938 157.953125 181.339844 159.863281 180.984375 161.761719 C 180.628906 163.660156 180.050781 165.488281 179.253906 167.246094 C 178.457031 169.003906 177.460938 170.640625 176.265625 172.15625 C 175.070312 173.671875 173.714844 175.027344 172.191406 176.214844 Z M 172.183594 176.214844 " fill-opacity="1" fill-rule="nonzero"/><path fill="#894a35" d="M 118.632812 104.492188 L 125.136719 97.992188 L 159.285156 97.992188 C 159.644531 97.992188 159.992188 97.9375 160.335938 97.835938 C 160.679688 97.730469 161 97.578125 161.296875 97.378906 C 161.597656 97.179688 161.859375 96.941406 162.085938 96.664062 C 162.316406 96.386719 162.496094 96.082031 162.632812 95.753906 C 162.769531 95.421875 162.859375 95.078125 162.894531 94.71875 C 162.929688 94.363281 162.910156 94.007812 162.839844 93.65625 C 162.769531 93.304688 162.652344 92.972656 162.480469 92.65625 C 162.3125 92.339844 162.101562 92.054688 161.847656 91.800781 L 161.222656 91.179688 C 158.632812 88.582031 155.730469 86.402344 152.515625 84.636719 C 149.296875 82.875 145.898438 81.597656 142.316406 80.808594 L 146.898438 76.230469 L 181.046875 76.230469 C 181.40625 76.230469 181.757812 76.175781 182.097656 76.074219 C 182.441406 75.96875 182.761719 75.816406 183.0625 75.617188 C 183.359375 75.417969 183.621094 75.179688 183.851562 74.902344 C 184.078125 74.625 184.257812 74.320312 184.398438 73.988281 C 184.535156 73.660156 184.621094 73.3125 184.65625 72.957031 C 184.691406 72.601562 184.671875 72.246094 184.601562 71.894531 C 184.535156 71.542969 184.414062 71.207031 184.246094 70.890625 C 184.074219 70.578125 183.863281 70.292969 183.609375 70.039062 L 182.988281 69.417969 C 180.398438 66.820312 177.492188 64.636719 174.277344 62.875 C 171.0625 61.109375 167.660156 59.835938 164.078125 59.046875 L 174.851562 48.269531 L 169.722656 43.144531 L 158.554688 54.308594 C 157.828125 50.535156 156.5625 46.949219 154.753906 43.550781 C 152.949219 40.15625 150.683594 37.101562 147.960938 34.386719 L 147.339844 33.765625 C 147.085938 33.511719 146.800781 33.300781 146.484375 33.132812 C 146.167969 32.964844 145.835938 32.84375 145.484375 32.773438 C 145.132812 32.703125 144.777344 32.6875 144.421875 32.722656 C 144.0625 32.757812 143.71875 32.84375 143.386719 32.980469 C 143.054688 33.117188 142.75 33.300781 142.472656 33.527344 C 142.199219 33.753906 141.960938 34.019531 141.757812 34.316406 C 141.558594 34.613281 141.410156 34.933594 141.304688 35.277344 C 141.199219 35.621094 141.148438 35.972656 141.148438 36.332031 L 141.148438 71.71875 L 136.796875 76.074219 C 136.070312 72.296875 134.800781 68.710938 132.996094 65.316406 C 131.191406 61.917969 128.925781 58.863281 126.203125 56.148438 L 125.582031 55.527344 C 125.328125 55.273438 125.042969 55.0625 124.726562 54.894531 C 124.410156 54.722656 124.074219 54.605469 123.722656 54.535156 C 123.371094 54.464844 123.015625 54.445312 122.660156 54.480469 C 122.300781 54.515625 121.957031 54.601562 121.625 54.738281 C 121.292969 54.875 120.988281 55.058594 120.710938 55.285156 C 120.433594 55.515625 120.195312 55.777344 119.996094 56.078125 C 119.796875 56.375 119.644531 56.695312 119.542969 57.039062 C 119.4375 57.382812 119.386719 57.734375 119.386719 58.09375 L 119.386719 93.484375 L 113.503906 99.363281 Z M 148.574219 90.738281 L 132.390625 90.738281 L 135.894531 87.230469 C 140.371094 87.484375 144.597656 88.65625 148.574219 90.738281 Z M 170.335938 68.976562 L 154.152344 68.976562 L 157.65625 65.46875 C 162.136719 65.722656 166.363281 66.890625 170.335938 68.976562 Z M 148.402344 47.039062 C 150.679688 51.375 151.871094 55.992188 151.980469 60.890625 L 148.402344 64.464844 Z M 126.640625 68.800781 C 128.917969 73.136719 130.109375 77.753906 130.214844 82.652344 L 126.640625 86.230469 Z M 126.640625 68.800781 " fill-opacity="1" fill-rule="nonzero"/></svg>