<svg xmlns="http://www.w3.org/2000/svg" xmlns:xlink="http://www.w3.org/1999/xlink" width="250" zoomAndPan="magnify" viewBox="0 0 187.5 187.499992" height="250" preserveAspectRatio="xMidYMid meet" version="1.0"><defs><clipPath id="id1"><path d="M 11.9375 5.296875 L 174.257812 5.296875 L 174.257812 183.324219 L 11.9375 183.324219 Z M 11.9375 5.296875 " clip-rule="nonzero"/></clipPath><clipPath id="id2"><path d="M 26.335938 37.117188 L 159.855469 37.117188 L 159.855469 149.691406 L 26.335938 149.691406 Z M 26.335938 37.117188 " clip-rule="nonzero"/></clipPath></defs><path fill="#849bff" d="M 168.136719 181.730469 L 18.058594 181.730469 C 15.5625 181.730469 13.5 179.640625 13.5 177.105469 L 13.5 11.515625 C 13.5 8.980469 15.5625 6.890625 18.058594 6.890625 L 168.074219 6.890625 C 170.570312 6.890625 172.632812 8.980469 172.632812 11.515625 L 172.632812 177.042969 C 172.695312 179.640625 170.632812 181.730469 168.136719 181.730469 " fill-opacity="1" fill-rule="nonzero"/><g clip-path="url(#id1)"><path fill="#000000" d="M 168.136719 8.285156 C 169.882812 8.285156 171.320312 9.742188 171.320312 11.515625 L 171.320312 177.105469 C 171.320312 178.882812 169.882812 180.339844 168.136719 180.339844 L 18.058594 180.339844 C 16.3125 180.339844 14.875 178.882812 14.875 177.105469 L 14.875 11.515625 C 14.875 9.742188 16.3125 8.285156 18.058594 8.285156 L 168.136719 8.285156 M 168.136719 5.308594 L 18.058594 5.308594 C 14.6875 5.308594 11.9375 8.09375 11.9375 11.515625 L 11.9375 177.105469 C 11.9375 180.527344 14.6875 183.316406 18.058594 183.316406 L 168.136719 183.316406 C 171.507812 183.316406 174.257812 180.527344 174.257812 177.105469 L 174.257812 11.515625 C 174.257812 8.09375 171.507812 5.308594 168.136719 5.308594 " fill-opacity="1" fill-rule="nonzero"/></g><g clip-path="url(#id2)"><path fill="#231f20" d="M 159.738281 67.589844 L 146.808594 103.328125 C 146.804688 103.335938 146.800781 103.34375 146.800781 103.351562 C 146.792969 103.367188 146.78125 103.386719 146.773438 103.40625 C 146.757812 103.4375 146.742188 103.46875 146.726562 103.496094 C 146.714844 103.515625 146.703125 103.53125 146.691406 103.546875 C 146.667969 103.578125 146.644531 103.609375 146.617188 103.640625 C 146.605469 103.648438 146.597656 103.660156 146.585938 103.671875 C 146.546875 103.710938 146.503906 103.746094 146.457031 103.777344 C 146.453125 103.777344 146.453125 103.78125 146.449219 103.78125 C 146.445312 103.785156 146.4375 103.785156 146.433594 103.789062 C 146.398438 103.8125 146.363281 103.832031 146.324219 103.851562 C 146.285156 103.867188 146.25 103.882812 146.210938 103.894531 C 146.199219 103.894531 146.191406 103.898438 146.183594 103.898438 C 146.144531 103.910156 146.105469 103.917969 146.066406 103.925781 C 146.023438 103.929688 145.984375 103.933594 145.941406 103.933594 C 145.921875 103.933594 145.902344 103.933594 145.882812 103.933594 L 130.332031 102.96875 L 134.648438 118.5 C 134.726562 118.78125 134.664062 119.078125 134.488281 119.304688 L 111.101562 149.351562 C 111.097656 149.355469 111.09375 149.359375 111.089844 149.367188 C 111.054688 149.410156 111.011719 149.449219 110.96875 149.488281 C 110.960938 149.492188 110.957031 149.5 110.949219 149.503906 C 110.898438 149.546875 110.839844 149.582031 110.78125 149.613281 C 110.765625 149.621094 110.746094 149.625 110.730469 149.632812 C 110.695312 149.648438 110.65625 149.664062 110.617188 149.675781 C 110.613281 149.675781 110.605469 149.675781 110.597656 149.675781 C 110.527344 149.695312 110.457031 149.703125 110.386719 149.707031 C 110.382812 149.707031 110.378906 149.707031 110.371094 149.707031 C 110.316406 149.707031 110.261719 149.703125 110.210938 149.691406 C 110.195312 149.691406 110.183594 149.6875 110.171875 149.683594 C 110.128906 149.675781 110.089844 149.664062 110.054688 149.648438 C 110.046875 149.648438 110.039062 149.644531 110.035156 149.644531 L 74.160156 135.605469 C 73.890625 135.5 73.6875 135.277344 73.609375 135 L 66.550781 109.605469 L 37.808594 109.390625 C 37.792969 109.390625 37.777344 109.390625 37.761719 109.386719 C 37.730469 109.386719 37.695312 109.382812 37.664062 109.378906 C 37.644531 109.375 37.625 109.367188 37.601562 109.363281 C 37.574219 109.359375 37.546875 109.351562 37.519531 109.34375 C 37.496094 109.335938 37.472656 109.324219 37.453125 109.316406 C 37.429688 109.304688 37.40625 109.296875 37.382812 109.285156 C 37.34375 109.265625 37.304688 109.238281 37.269531 109.214844 C 37.265625 109.210938 37.261719 109.207031 37.257812 109.203125 C 37.210938 109.171875 37.171875 109.132812 37.132812 109.089844 C 37.121094 109.074219 37.109375 109.058594 37.097656 109.042969 C 37.074219 109.015625 37.054688 108.988281 37.035156 108.957031 C 37.023438 108.941406 37.011719 108.921875 37 108.902344 C 36.984375 108.871094 36.972656 108.839844 36.960938 108.808594 C 36.953125 108.789062 36.945312 108.769531 36.9375 108.746094 C 36.933594 108.738281 36.929688 108.734375 36.929688 108.722656 L 26.453125 71.875 C 26.375 71.597656 26.429688 71.300781 26.605469 71.070312 L 46.21875 45.507812 C 46.222656 45.503906 46.222656 45.503906 46.226562 45.503906 C 46.265625 45.453125 46.308594 45.40625 46.359375 45.363281 C 46.375 45.351562 46.394531 45.339844 46.410156 45.328125 C 46.445312 45.300781 46.484375 45.277344 46.519531 45.257812 C 46.542969 45.246094 46.566406 45.234375 46.589844 45.226562 C 46.628906 45.210938 46.664062 45.195312 46.703125 45.183594 C 46.730469 45.175781 46.753906 45.171875 46.78125 45.167969 C 46.796875 45.164062 46.816406 45.15625 46.832031 45.15625 C 46.855469 45.152344 46.882812 45.152344 46.90625 45.152344 C 46.921875 45.152344 46.9375 45.144531 46.953125 45.144531 C 46.957031 45.144531 46.957031 45.144531 46.960938 45.144531 L 85.199219 45.433594 C 85.613281 45.433594 85.96875 45.707031 86.082031 46.097656 L 91.632812 65.621094 L 101.714844 37.75 C 101.855469 37.367188 102.238281 37.121094 102.640625 37.144531 L 141.125 39.527344 C 141.140625 39.527344 141.152344 39.53125 141.167969 39.535156 C 141.214844 39.539062 141.257812 39.546875 141.300781 39.558594 C 141.324219 39.566406 141.347656 39.570312 141.371094 39.578125 C 141.410156 39.59375 141.453125 39.613281 141.492188 39.632812 C 141.511719 39.640625 141.53125 39.652344 141.550781 39.664062 C 141.589844 39.6875 141.628906 39.71875 141.664062 39.75 C 141.679688 39.761719 141.695312 39.769531 141.707031 39.785156 C 141.753906 39.828125 141.800781 39.878906 141.835938 39.9375 L 141.839844 39.9375 L 159.640625 66.777344 C 159.800781 67.015625 159.835938 67.320312 159.738281 67.589844 Z M 159.738281 67.589844 " fill-opacity="1" fill-rule="nonzero"/></g><path fill="#ffffff" d="M 64.996094 104.019531 L 66.039062 107.769531 L 39.667969 107.574219 L 57.882812 83.832031 L 80.113281 83.996094 L 65.15625 103.214844 C 65.148438 103.226562 65.140625 103.242188 65.132812 103.257812 C 65.117188 103.277344 65.097656 103.296875 65.085938 103.320312 C 65.078125 103.335938 65.070312 103.351562 65.066406 103.367188 C 65.054688 103.390625 65.042969 103.414062 65.035156 103.4375 C 65.019531 103.476562 65.007812 103.515625 64.996094 103.554688 C 64.988281 103.578125 64.984375 103.601562 64.980469 103.625 C 64.972656 103.671875 64.96875 103.714844 64.96875 103.757812 C 64.96875 103.78125 64.964844 103.800781 64.96875 103.824219 C 64.972656 103.886719 64.980469 103.949219 64.996094 104.011719 C 64.996094 104.015625 64.996094 104.015625 64.996094 104.019531 Z M 28.355469 71.820312 L 38.203125 106.460938 L 56.414062 82.71875 L 46.566406 48.078125 Z M 88.542969 73.167969 C 88.664062 73.011719 88.832031 72.902344 89.015625 72.851562 L 90.558594 68.589844 L 84.492188 47.257812 L 48.175781 46.988281 L 58.128906 82 L 81.53125 82.175781 Z M 145.695312 100.984375 L 157.84375 67.402344 L 141.3125 42.476562 L 129.164062 76.058594 Z M 125.484375 86.914062 C 125.5 86.917969 125.507812 86.929688 125.523438 86.933594 C 125.566406 86.953125 125.605469 86.972656 125.644531 87 C 125.664062 87.011719 125.683594 87.023438 125.703125 87.039062 C 125.738281 87.066406 125.769531 87.09375 125.800781 87.125 C 125.816406 87.140625 125.832031 87.15625 125.847656 87.171875 C 125.878906 87.210938 125.90625 87.25 125.929688 87.292969 C 125.941406 87.304688 125.953125 87.320312 125.960938 87.335938 C 125.992188 87.394531 126.019531 87.457031 126.035156 87.523438 L 129.8125 101.101562 L 144.152344 101.988281 L 127.621094 77.066406 L 95.183594 75.058594 Z M 139.785156 41.28125 L 103.21875 39.015625 L 90.9375 72.957031 L 127.503906 75.222656 Z M 67.269531 105.300781 L 75.265625 134.070312 L 108.992188 147.265625 L 100.992188 118.496094 Z M 102.773438 118.011719 L 110.769531 146.78125 L 132.746094 118.546875 L 124.746094 89.777344 Z M 123.664062 88.171875 L 89.578125 74.835938 L 67.367188 103.371094 L 101.453125 116.707031 Z M 123.664062 88.171875 " fill-opacity="1" fill-rule="nonzero"/></svg>