<svg xmlns="http://www.w3.org/2000/svg" xmlns:xlink="http://www.w3.org/1999/xlink" width="250" zoomAndPan="magnify" viewBox="0 0 187.5 187.499992" height="250" preserveAspectRatio="xMidYMid meet" version="1.0"><defs><clipPath id="id1"><path d="M 15.710938 9.375 L 171.710938 9.375 L 171.710938 178.125 L 15.710938 178.125 Z M 15.710938 9.375 " clip-rule="nonzero"/></clipPath><clipPath id="id2"><path d="M 33 24 L 151 24 L 151 163.464844 L 33 163.464844 Z M 33 24 " clip-rule="nonzero"/></clipPath></defs><path fill="#602e9e" d="M 165.828125 176.617188 L 21.59375 176.617188 C 19.191406 176.617188 17.210938 174.636719 17.210938 172.234375 L 17.210938 15.265625 C 17.210938 12.863281 19.191406 10.882812 21.59375 10.882812 L 165.765625 10.882812 C 168.167969 10.882812 170.148438 12.863281 170.148438 15.265625 L 170.148438 172.171875 C 170.207031 174.636719 168.226562 176.617188 165.828125 176.617188 " fill-opacity="1" fill-rule="nonzero"/><g clip-path="url(#id1)"><path fill="#000000" d="M 165.828125 12.203125 C 167.507812 12.203125 168.886719 13.585938 168.886719 15.265625 L 168.886719 172.234375 C 168.886719 173.914062 167.507812 175.296875 165.828125 175.296875 L 21.59375 175.296875 C 19.910156 175.296875 18.53125 173.914062 18.53125 172.234375 L 18.53125 15.265625 C 18.53125 13.585938 19.910156 12.203125 21.59375 12.203125 L 165.828125 12.203125 M 165.828125 9.382812 L 21.59375 9.382812 C 18.351562 9.382812 15.710938 12.023438 15.710938 15.265625 L 15.710938 172.234375 C 15.710938 175.476562 18.351562 178.117188 21.59375 178.117188 L 165.828125 178.117188 C 169.066406 178.117188 171.710938 175.476562 171.710938 172.234375 L 171.710938 15.265625 C 171.710938 12.023438 169.066406 9.382812 165.828125 9.382812 " fill-opacity="1" fill-rule="nonzero"/></g><path fill="#ffffff" d="M 95.222656 55.46875 L 92.164062 44.875 L 89.105469 55.46875 C 88.199219 55.570312 87.492188 56.339844 87.492188 57.273438 C 87.492188 58.277344 88.304688 59.089844 89.308594 59.089844 L 95.019531 59.089844 C 96.023438 59.089844 96.835938 58.277344 96.835938 57.273438 C 96.835938 56.339844 96.128906 55.570312 95.222656 55.46875 Z M 95.222656 55.46875 " fill-opacity="1" fill-rule="nonzero"/><g clip-path="url(#id2)"><path fill="#ffffff" d="M 138.917969 41.164062 C 124.535156 38.214844 102.058594 24 92.164062 24 C 82.269531 24 59.792969 38.214844 45.410156 41.164062 C 38.007812 42.679688 32.910156 49.5 33.539062 57.035156 L 37.421875 103.671875 L 41.257812 149.726562 C 41.902344 157.472656 48.371094 163.425781 56.136719 163.425781 L 128.191406 163.425781 C 135.957031 163.425781 142.425781 157.472656 143.070312 149.726562 L 146.90625 103.671875 L 150.789062 57.035156 C 151.417969 49.5 146.324219 42.679688 138.917969 41.164062 Z M 136.890625 66.242188 C 134.699219 69.808594 130.890625 71.777344 126.988281 71.777344 C 124.914062 71.777344 122.816406 71.222656 120.917969 70.054688 C 103.183594 59.144531 81.144531 59.144531 63.410156 70.054688 C 57.945312 73.414062 50.796875 71.707031 47.4375 66.242188 C 44.078125 60.773438 45.785156 53.617188 51.246094 50.257812 C 63.667969 42.617188 77.816406 38.578125 92.164062 38.578125 C 106.511719 38.578125 120.660156 42.617188 133.082031 50.257812 C 138.542969 53.617188 140.25 60.773438 136.890625 66.242188 Z M 136.890625 66.242188 " fill-opacity="1" fill-rule="nonzero"/></g></svg>